<?xml version="1.0" encoding="UTF-8"?>
<svg id="Layer_1" data-name="Layer 1" xmlns="http://www.w3.org/2000/svg" viewBox="0 0 2537.96 223.9">
  <defs>
    <style>
      .cls-1 {
        fill: #ed1c24;
        stroke: #ed1c24;
      }

      .cls-1, .cls-2 {
        fill-rule: evenodd;
        stroke-miterlimit: 10;
        stroke-width: 4px;
      }

      .cls-2 {
        fill: #fff;
        stroke: #fff;
      }
    </style>
  </defs>
  <polygon class="cls-2" points="524 2.4 524.25 209.9 563.75 209.65 563.5 161.15 562.75 160.65 563 91.9 563.5 91.9 569 97.65 570.5 97.9 579 106.65 580.5 106.9 589 115.65 590.5 115.9 599 124.65 600.5 124.9 609 133.65 610.5 133.9 620 143.65 621.5 143.9 630 152.65 631.5 152.9 640 161.65 641.5 161.9 650 170.65 651.5 170.9 660 179.65 661.5 179.9 670 188.65 671.5 188.9 681 198.65 682.5 198.9 691 207.65 692.5 207.9 701 216.65 702.5 216.9 704.25 218.9 704.75 218.9 704.5 10.15 665 10.4 665.25 72.9 666 73.4 665.75 130.15 665.25 130.15 662.75 127.4 661.25 127.15 649.75 115.4 648.25 115.15 637.75 104.4 636.25 104.15 625.75 93.4 624.25 93.15 612.75 81.4 611.25 81.15 600.75 70.4 599.25 70.15 587.75 58.4 586.25 58.15 575.75 47.4 574.25 47.15 563.75 36.4 562.25 36.15 550.75 24.4 549.25 24.15 538.75 13.4 537.25 13.15 526.75 2.4 524 2.4"/>
  <polygon class="cls-2" points="851 2.4 851.25 209.9 889.75 209.65 890 91.9 890.5 91.9 899 100.65 900.5 100.9 910 110.65 911.5 110.9 920 119.65 921.5 119.9 931 129.65 932.5 129.9 941 138.65 942.5 138.9 952 148.65 953.5 148.9 962 157.65 963.5 157.9 972 166.65 973.5 166.9 983 176.65 984.5 176.9 993 185.65 994.5 185.9 1004 195.65 1005.5 195.9 1014 204.65 1015.5 204.9 1025 214.65 1026.5 214.9 1030.25 218.9 1031.75 218.65 1031.5 10.15 992 10.4 992.25 122.9 993 123.4 993 129.65 992.5 130.15 991.25 130.15 980.75 119.4 979.25 119.15 968.75 108.4 967.25 108.15 955.75 96.4 954.25 96.15 943.75 85.4 942.25 85.15 931.75 74.4 930.25 74.15 918.75 62.4 917.25 62.15 906.75 51.4 905.25 51.15 894.75 40.4 893.25 40.15 881.75 28.4 880.25 28.15 869.75 17.4 868.25 17.15 857.75 6.4 856.25 6.15 852.5 2.15 851 2.4"/>
  <polygon class="cls-2" points="209 82.4 209.25 83.9 213 87.65 214.5 87.9 217 90.65 218.5 90.9 222 94.65 223.5 94.9 226 97.65 227.5 97.9 230 100.65 231.5 100.9 235 104.65 236.5 104.9 239 107.65 240.5 107.9 242.5 109.9 291.25 60.9 293.5 60.9 296 63.4 296.25 64.9 310 78.4 310.25 79.9 324 93.4 324.25 94.9 338 108.4 338 109.9 338.5 109.9 352.25 95.9 353.75 95.65 380.25 68.9 381.75 68.65 389.5 60.9 403 74.4 403.25 75.9 416 88.4 416.25 89.9 429 102.4 429.25 103.9 435.5 109.9 439.25 105.9 440.75 105.65 446.25 99.9 447.75 99.65 452.25 94.9 453.75 94.65 458.25 89.9 459.75 89.65 465.75 83.4 454.75 72.65 454.5 71.15 435.75 52.65 435.5 51.15 415.75 31.65 415.5 30.15 396.75 11.65 396.5 10.15 389.25 3.15 375.5 17.15 374 17.4 347.5 44.15 346 44.4 338.25 52.15 336.75 50.65 336.5 49.15 317.75 30.65 317.5 29.15 291.5 3.15 275.5 19.15 274 19.4 243.5 50.15 242 50.4 210.5 82.15 209 82.4"/>
  <polygon class="cls-2" points="1181.5 4.15 1179 4.4 1179 5.65 1178.25 6.15 1178 7.65 1177.25 8.15 1177 9.65 1176.25 10.15 1176 11.65 1175.25 12.15 1175 14.65 1174.25 15.15 1174 16.65 1173.25 17.15 1173 18.65 1172.25 19.15 1172 20.65 1171.25 21.15 1171 23.65 1170.25 24.15 1170 25.65 1169.25 26.15 1169 27.65 1168.25 28.15 1168 29.65 1167.25 30.15 1167 31.65 1166.25 32.15 1166 34.65 1165.25 35.15 1165 36.65 1164.25 37.15 1164 38.65 1163.25 39.15 1163 40.65 1162.25 41.15 1162 43.65 1161.25 44.15 1161 45.65 1160.25 46.15 1160 47.65 1159.25 48.15 1159 49.65 1158.25 50.15 1158 52.65 1157.25 53.15 1157 54.65 1156.25 55.15 1156 56.65 1155.25 57.15 1155 58.65 1154.25 59.15 1154 61.65 1153.25 62.15 1153 63.65 1152.25 64.15 1152 65.65 1151.25 66.15 1151 67.65 1150.25 68.15 1150 70.65 1149.25 71.15 1149 72.65 1148.25 73.15 1148 74.65 1147.25 75.15 1147 76.65 1146.25 77.15 1146 78.65 1145.25 79.15 1145 81.65 1144.25 82.15 1144 83.65 1143.25 84.15 1143 85.65 1142.25 86.15 1142 87.65 1141.25 88.15 1141 90.65 1140.25 91.15 1140 92.65 1139.25 93.15 1139 94.65 1138.25 95.15 1138 96.65 1137.25 97.15 1137 99.65 1136.25 100.15 1136 101.65 1135.25 102.15 1135 103.65 1134.25 104.15 1134 105.65 1133.25 106.15 1133 108.65 1132.25 109.15 1132 110.65 1131.25 111.15 1131 112.65 1130.25 113.15 1130 114.65 1129.25 115.15 1129 117.65 1128.25 118.15 1128 119.65 1127.25 120.15 1127 121.65 1126.25 122.15 1126 123.65 1125.25 124.15 1125 125.65 1124.25 126.15 1124 128.65 1123.25 129.15 1123 130.65 1122.25 131.15 1122 132.65 1121.25 133.15 1121 134.65 1120.25 135.15 1120 137.65 1119.25 138.15 1119 139.65 1118.25 140.15 1118 141.65 1117.25 142.15 1117 143.65 1116.25 144.15 1116 146.65 1115.25 147.15 1115 148.65 1114.25 149.15 1114 150.65 1113.25 151.15 1113 152.65 1112.25 153.15 1112 155.65 1111.25 156.15 1111 157.65 1110.25 158.15 1110 159.65 1109.25 160.15 1109 161.65 1108.25 162.15 1108 163.65 1107.25 164.15 1107 166.65 1106.25 167.15 1106 168.65 1105.25 169.15 1105 170.65 1104.25 171.15 1104 172.65 1103.25 173.15 1103 175.65 1102.25 176.15 1102 177.65 1101.25 178.15 1101 179.65 1100.25 180.15 1100 181.65 1099.25 182.15 1099 184.65 1098.25 185.15 1098 186.65 1097.25 187.15 1097 188.65 1096.25 189.15 1096 190.65 1095.25 191.15 1095 193.65 1094.25 194.15 1094 195.65 1093.25 196.15 1093 197.65 1092.25 198.15 1092 199.65 1091.25 200.15 1091 202.65 1090.25 203.15 1090 204.65 1089.25 205.15 1089 206.65 1088.25 207.15 1088 208.65 1087.25 209.15 1087 210.65 1086.25 211.15 1086.25 212.9 1124.75 212.65 1125.5 211.9 1125.75 210.4 1126.5 209.9 1126.75 208.4 1127.5 207.9 1127.75 205.4 1128.5 204.9 1128.75 203.4 1129.5 202.9 1129.75 201.4 1130.5 200.9 1130.75 198.4 1131.5 197.9 1131.75 196.4 1132.5 195.9 1132.75 194.4 1133.5 193.9 1133.75 191.4 1134.5 190.9 1134.75 189.4 1135.5 188.9 1135.75 187.4 1136.5 186.9 1136.75 184.4 1137.5 183.9 1137.75 182.4 1138.5 181.9 1138.75 180.4 1139.5 179.9 1139.75 177.4 1140.5 176.9 1140.75 175.4 1141.5 174.9 1141.75 173.4 1142.5 172.9 1142.75 170.4 1143.5 169.9 1143.75 168.4 1144.5 167.9 1144.75 166.4 1145.5 165.9 1145.75 163.4 1146.5 162.9 1146.75 161.4 1147.5 160.9 1147.75 159.4 1148.5 158.9 1148.75 157.4 1149.5 156.9 1149.75 154.4 1150.5 153.9 1150.75 152.4 1151.5 151.9 1151.75 150.4 1152.5 149.9 1152.75 147.4 1153.5 146.9 1153.75 145.4 1154.5 144.9 1154.75 143.4 1155.5 142.9 1155.75 140.4 1156.5 139.9 1156.75 138.4 1157.5 137.9 1157.75 136.4 1158.5 135.9 1158.75 133.4 1159.5 132.9 1159.75 131.4 1160.5 130.9 1160.75 129.4 1161.5 128.9 1161.75 126.4 1162.5 125.9 1162.75 124.4 1163.5 123.9 1163.75 122.4 1164.5 121.9 1164.75 119.4 1165.5 118.9 1165.75 117.4 1166.5 116.9 1166.75 115.4 1167.5 114.9 1167.75 112.4 1168.5 111.9 1168.75 110.4 1169.5 109.9 1169.75 108.4 1170.5 107.9 1170.75 105.4 1171.5 104.9 1171.75 103.4 1172.5 102.9 1172.75 101.4 1173.5 100.9 1173.75 98.4 1174.5 97.9 1175.75 94.4 1177.25 92.9 1178 93.15 1178.25 94.9 1179 95.4 1179.25 97.9 1180 98.4 1180.25 100.9 1181 101.4 1181.25 102.9 1182 103.4 1182.25 105.9 1183 106.4 1183.25 108.9 1184 109.4 1184.25 110.9 1185 111.4 1185.25 113.9 1186 114.4 1186.25 115.9 1187 116.4 1187.25 118.9 1188 119.4 1188.25 121.9 1189 122.4 1189.25 123.9 1190 124.4 1190.25 126.9 1191 127.4 1191.25 129.9 1192 130.4 1192.25 131.9 1193 132.4 1193.25 134.9 1194 135.4 1194.25 137.9 1195 138.4 1195.25 139.9 1196 140.4 1196.25 142.9 1197 143.4 1197.25 144.9 1198 145.4 1198.25 147.9 1199 148.4 1199.25 150.9 1200 151.4 1200.25 152.9 1201 153.4 1201.25 155.9 1202 156.4 1202.25 158.9 1203 159.4 1203.25 160.9 1204 161.4 1204.25 163.9 1205 164.4 1205.25 165.9 1206 166.4 1206.25 168.9 1207 169.4 1207.25 171.9 1208 172.4 1208.25 173.9 1209 174.4 1209.25 176.9 1210 177.4 1210.25 179.9 1211 180.4 1211.25 181.9 1212 182.4 1212.25 184.9 1213 185.4 1213.25 186.9 1214 187.4 1214.25 189.9 1215 190.4 1215.25 192.9 1216 193.4 1216.25 194.9 1217 195.4 1217.25 197.9 1218 198.4 1218.25 200.9 1219 201.4 1219.25 202.9 1220 203.4 1220.25 205.9 1221 206.4 1221.25 208.9 1222 209.4 1222.25 210.9 1223 211.4 1223.25 213.9 1268.75 213.65 1268.5 211.15 1267.75 210.65 1267.5 209.15 1266.75 208.65 1266.5 206.15 1265.75 205.65 1265.5 204.15 1264.75 203.65 1264.5 202.15 1263.75 201.65 1263.5 199.15 1262.75 198.65 1262.5 197.15 1261.75 196.65 1261.5 194.15 1260.75 193.65 1260.5 192.15 1259.75 191.65 1259.5 190.15 1258.75 189.65 1258.5 187.15 1257.75 186.65 1257.5 185.15 1256.75 184.65 1256.5 183.15 1255.75 182.65 1255.5 180.15 1254.75 179.65 1254.5 178.15 1253.75 177.65 1253.5 175.15 1252.75 174.65 1252.5 173.15 1251.75 172.65 1251.5 171.15 1250.75 170.65 1250.5 168.15 1249.75 167.65 1249.5 166.15 1248.75 165.65 1248.5 164.15 1247.75 163.65 1247.5 161.15 1246.75 160.65 1246.5 159.15 1245.75 158.65 1245.5 156.15 1244.75 155.65 1244.5 154.15 1243.75 153.65 1243.5 152.15 1242.75 151.65 1242.5 149.15 1241.75 148.65 1241.5 147.15 1240.75 146.65 1240.5 145.15 1239.75 144.65 1239.5 142.15 1238.75 141.65 1238.5 140.15 1237.75 139.65 1237.5 137.15 1236.75 136.65 1236.5 135.15 1235.75 134.65 1235.5 133.15 1234.75 132.65 1234.5 130.15 1233.75 129.65 1233.5 128.15 1232.75 127.65 1232.5 126.15 1231.75 125.65 1231.5 123.15 1230.75 122.65 1230.5 121.15 1229.75 120.65 1229.5 118.15 1228.75 117.65 1228.5 116.15 1227.75 115.65 1227.5 114.15 1226.75 113.65 1226.5 111.15 1225.75 110.65 1225.5 109.15 1224.75 108.65 1224.5 107.15 1223.75 106.65 1223.5 104.15 1222.75 103.65 1222.5 102.15 1221.75 101.65 1221.5 99.15 1220.75 98.65 1220.5 97.15 1219.75 96.65 1219.5 95.15 1218.75 94.65 1218.5 92.15 1217.75 91.65 1217.5 90.15 1216.75 89.65 1216.5 88.15 1215.75 87.65 1215.5 85.15 1214.75 84.65 1214.5 83.15 1213.75 82.65 1213.5 80.15 1212.75 79.65 1212.5 78.15 1211.75 77.65 1211.5 76.15 1210.75 75.65 1210.5 73.15 1209.75 72.65 1209.5 71.15 1208.75 70.65 1208.5 68.15 1207.75 67.65 1207.5 66.15 1206.75 65.65 1206.5 64.15 1205.75 63.65 1205.5 61.15 1204.75 60.65 1204.5 59.15 1203.75 58.65 1203.5 57.15 1202.75 56.65 1202.5 54.15 1201.75 53.65 1201.5 52.15 1200.75 51.65 1200.5 49.15 1199.75 48.65 1199.5 47.15 1198.75 46.65 1198.5 45.15 1197.75 44.65 1197.5 42.15 1196.75 41.65 1196.5 40.15 1195.75 39.65 1195.5 38.15 1194.75 37.65 1194.5 35.15 1193.75 34.65 1193.5 33.15 1192.75 32.65 1192.5 30.15 1191.75 29.65 1191.5 28.15 1190.75 27.65 1190.5 26.15 1189.75 25.65 1189.5 23.15 1188.75 22.65 1188.5 21.15 1187.75 20.65 1187.5 19.15 1186.75 18.65 1186.5 16.15 1185.75 15.65 1185.5 14.15 1184.75 13.65 1184.5 11.15 1183.75 10.65 1183.5 9.15 1182.75 8.65 1182.5 7.15 1181.75 6.65 1181.5 4.15"/>
  <polygon class="cls-2" points="1570.5 4.15 1569.25 4.15 1568.25 5.15 1568 6.65 1567.25 7.15 1567 8.65 1566.25 9.15 1566 10.65 1565.25 11.15 1565 13.65 1564.25 14.15 1564 15.65 1563.25 16.15 1563 17.65 1562.25 18.15 1562 19.65 1561.25 20.15 1561 22.65 1560.25 23.15 1560 24.65 1559.25 25.15 1559 26.65 1558.25 27.15 1558 28.65 1557.25 29.15 1557 31.65 1556.25 32.15 1556 33.65 1555.25 34.15 1555 35.65 1554.25 36.15 1554 37.65 1553.25 38.15 1553 39.65 1552.25 40.15 1552 42.65 1551.25 43.15 1551 44.65 1550.25 45.15 1550 46.65 1549.25 47.15 1549 48.65 1548.25 49.15 1548 51.65 1547.25 52.15 1547 53.65 1546.25 54.15 1546 55.65 1545.25 56.15 1545 57.65 1544.25 58.15 1544 60.65 1543.25 61.15 1543 62.65 1542.25 63.15 1542 64.65 1541.25 65.15 1541 66.65 1540.25 67.15 1540 69.65 1539.25 70.15 1539 71.65 1538.25 72.15 1538 73.65 1537.25 74.15 1537 75.65 1536.25 76.15 1536 78.65 1535.25 79.15 1535 80.65 1534.25 81.15 1534 82.65 1533.25 83.15 1533 84.65 1532.25 85.15 1532 86.65 1531.25 87.15 1531 89.65 1530.25 90.15 1530 91.65 1529.25 92.15 1529 93.65 1528.25 94.15 1528 95.65 1527.25 96.15 1527 98.65 1526.25 99.15 1526 100.65 1525.25 101.15 1525 102.65 1524.25 103.15 1524 104.65 1523.25 105.15 1523 107.65 1522.25 108.15 1522 109.65 1521.25 110.15 1521 111.65 1520.25 112.15 1520 113.65 1519.25 114.15 1519 116.65 1518.25 117.15 1518 118.65 1517.25 119.15 1517 120.65 1516.25 121.15 1516 122.65 1515.25 123.15 1515 125.65 1514.25 126.15 1514 127.65 1513.25 128.15 1513 129.65 1512.25 130.15 1512 131.65 1511.25 132.15 1511 133.65 1510.25 134.15 1510 136.65 1509.25 137.15 1509 138.65 1508.25 139.15 1508 140.65 1507.25 141.15 1507 142.65 1506.25 143.15 1506 145.65 1505.25 146.15 1505 147.65 1504.25 148.15 1504 149.65 1503.25 150.15 1503 151.65 1502.25 152.15 1502 154.65 1501.25 155.15 1501 156.65 1500.25 157.15 1500 158.65 1499.25 159.15 1499 160.65 1498.25 161.15 1498 163.65 1497.25 164.15 1497 165.65 1496.25 166.15 1496 167.65 1495.25 168.15 1495 169.65 1494.25 170.15 1494 172.65 1493.25 173.15 1493 174.65 1492.25 175.15 1492 176.65 1491.25 177.15 1491 178.65 1490.25 179.15 1490 180.65 1489.25 181.15 1489 183.65 1488.25 184.15 1488 185.65 1487.25 186.15 1487 187.65 1486.25 188.15 1486 189.65 1485.25 190.15 1485 192.65 1484.25 193.15 1484 194.65 1483.25 195.15 1483 196.65 1482.25 197.15 1482 198.65 1481.25 199.15 1481 201.65 1480.25 202.15 1480 203.65 1479.25 204.15 1479 205.65 1478.25 206.15 1478 207.65 1477.25 208.15 1477 210.65 1476.25 211.15 1476.25 212.9 1514.75 212.65 1514.75 211.4 1515.5 210.9 1515.75 209.4 1516.5 208.9 1516.75 207.4 1517.5 206.9 1517.75 204.4 1518.5 203.9 1518.75 202.4 1519.5 201.9 1519.75 200.4 1520.5 199.9 1520.75 197.4 1521.5 196.9 1521.75 195.4 1522.5 194.9 1522.75 193.4 1523.5 192.9 1523.75 190.4 1524.5 189.9 1524.75 188.4 1525.5 187.9 1525.75 186.4 1526.5 185.9 1526.75 183.4 1527.5 182.9 1527.75 181.4 1528.5 180.9 1528.75 179.4 1529.5 178.9 1529.75 176.4 1530.5 175.9 1530.75 174.4 1531.5 173.9 1531.75 172.4 1532.5 171.9 1532.75 169.4 1533.5 168.9 1533.75 167.4 1534.5 166.9 1534.75 165.4 1535.5 164.9 1535.75 163.4 1536.5 162.9 1536.75 160.4 1537.5 159.9 1537.75 158.4 1538.5 157.9 1538.75 156.4 1539.5 155.9 1539.75 153.4 1540.5 152.9 1540.75 151.4 1541.5 150.9 1541.75 149.4 1542.5 148.9 1542.75 146.4 1543.5 145.9 1543.75 144.4 1544.5 143.9 1544.75 142.4 1545.5 141.9 1545.75 139.4 1546.5 138.9 1546.75 137.4 1547.5 136.9 1547.75 135.4 1548.5 134.9 1548.75 132.4 1549.5 131.9 1549.75 130.4 1550.5 129.9 1550.75 128.4 1551.5 127.9 1551.75 125.4 1552.5 124.9 1552.75 123.4 1553.5 122.9 1553.75 121.4 1554.5 120.9 1554.75 118.4 1555.5 117.9 1555.75 116.4 1556.5 115.9 1556.75 114.4 1557.5 113.9 1557.75 111.4 1558.5 110.9 1558.75 109.4 1559.5 108.9 1559.75 107.4 1560.5 106.9 1560.75 104.4 1561.5 103.9 1561.75 102.4 1562.5 101.9 1562.75 100.4 1563.5 99.9 1563.75 97.4 1564.5 96.9 1566 92.9 1566.5 92.9 1568 94.4 1568.25 96.9 1569 97.4 1569.25 98.9 1570 99.4 1570.25 101.9 1571 102.4 1571.25 103.9 1572 104.4 1572.25 106.9 1573 107.4 1573.25 109.9 1574 110.4 1574.25 111.9 1575 112.4 1575.25 114.9 1576 115.4 1576.25 117.9 1577 118.4 1577.25 119.9 1578 120.4 1578.25 122.9 1579 123.4 1579.25 124.9 1580 125.4 1580.25 127.9 1581 128.4 1581.25 130.9 1582 131.4 1582.25 132.9 1583 133.4 1583.25 135.9 1584 136.4 1584.25 138.9 1585 139.4 1585.25 140.9 1586 141.4 1586.25 143.9 1587 144.4 1587.25 146.9 1588 147.4 1588.25 148.9 1589 149.4 1589.25 151.9 1590 152.4 1590.25 153.9 1591 154.4 1591.25 156.9 1592 157.4 1592.25 159.9 1593 160.4 1593.25 161.9 1594 162.4 1594.25 164.9 1595 165.4 1595.25 167.9 1596 168.4 1596.25 169.9 1597 170.4 1597.25 172.9 1598 173.4 1598.25 174.9 1599 175.4 1599.25 177.9 1600 178.4 1600.25 180.9 1601 181.4 1601.25 182.9 1602 183.4 1602.25 185.9 1603 186.4 1603.25 188.9 1604 189.4 1604.25 190.9 1605 191.4 1605.25 193.9 1606 194.4 1606.25 195.9 1607 196.4 1607.25 198.9 1608 199.4 1608.25 201.9 1609 202.4 1609.25 203.9 1610 204.4 1610.25 206.9 1611 207.4 1611.25 209.9 1612 210.4 1613.25 213.9 1658.75 213.65 1658.5 212.15 1657.75 211.65 1657.5 210.15 1656.75 209.65 1656.5 207.15 1655.75 206.65 1655.5 205.15 1654.75 204.65 1654.5 203.15 1653.75 202.65 1653.5 200.15 1652.75 199.65 1652.5 198.15 1651.75 197.65 1651.5 195.15 1650.75 194.65 1650.5 193.15 1649.75 192.65 1649.5 191.15 1648.75 190.65 1648.5 188.15 1647.75 187.65 1647.5 186.15 1646.75 185.65 1646.5 184.15 1645.75 183.65 1645.5 181.15 1644.75 180.65 1644.5 179.15 1643.75 178.65 1643.5 176.15 1642.75 175.65 1642.5 174.15 1641.75 173.65 1641.5 172.15 1640.75 171.65 1640.5 169.15 1639.75 168.65 1639.5 167.15 1638.75 166.65 1638.5 165.15 1637.75 164.65 1637.5 162.15 1636.75 161.65 1636.5 160.15 1635.75 159.65 1635.5 157.15 1634.75 156.65 1634.5 155.15 1633.75 154.65 1633.5 153.15 1632.75 152.65 1632.5 150.15 1631.75 149.65 1631.5 148.15 1630.75 147.65 1630.5 146.15 1629.75 145.65 1629.5 143.15 1628.75 142.65 1628.5 141.15 1627.75 140.65 1627.5 138.15 1626.75 137.65 1626.5 136.15 1625.75 135.65 1625.5 134.15 1624.75 133.65 1624.5 131.15 1623.75 130.65 1623.5 129.15 1622.75 128.65 1622.5 127.15 1621.75 126.65 1621.5 124.15 1620.75 123.65 1620.5 122.15 1619.75 121.65 1619.5 119.15 1618.75 118.65 1618.5 117.15 1617.75 116.65 1617.5 115.15 1616.75 114.65 1616.5 112.15 1615.75 111.65 1615.5 110.15 1614.75 109.65 1614.5 108.15 1613.75 107.65 1613.5 105.15 1612.75 104.65 1612.5 103.15 1611.75 102.65 1611.5 100.15 1610.75 99.65 1610.5 98.15 1609.75 97.65 1609.5 96.15 1608.75 95.65 1608.5 93.15 1607.75 92.65 1607.5 91.15 1606.75 90.65 1606.5 89.15 1605.75 88.65 1605.5 86.15 1604.75 85.65 1604.5 84.15 1603.75 83.65 1603.5 81.15 1602.75 80.65 1602.5 79.15 1601.75 78.65 1601.5 77.15 1600.75 76.65 1600.5 74.15 1599.75 73.65 1599.5 72.15 1598.75 71.65 1598.5 69.15 1597.75 68.65 1597.5 67.15 1596.75 66.65 1596.5 65.15 1595.75 64.65 1595.5 62.15 1594.75 61.65 1594.5 60.15 1593.75 59.65 1593.5 58.15 1592.75 57.65 1592.5 55.15 1591.75 54.65 1591.5 53.15 1590.75 52.65 1590.5 50.15 1589.75 49.65 1589.5 48.15 1588.75 47.65 1588.5 46.15 1587.75 45.65 1587.5 43.15 1586.75 42.65 1586.5 41.15 1585.75 40.65 1585.5 39.15 1584.75 38.65 1584.5 36.15 1583.75 35.65 1583.5 34.15 1582.75 33.65 1582.5 31.15 1581.75 30.65 1581.5 29.15 1580.75 28.65 1580.5 27.15 1579.75 26.65 1579.5 24.15 1578.75 23.65 1578.5 22.15 1577.75 21.65 1577.5 20.15 1576.75 19.65 1576.5 17.15 1575.75 16.65 1575.5 15.15 1574.75 14.65 1574.5 12.15 1573.75 11.65 1573.5 10.15 1572.75 9.65 1572.5 8.15 1571.75 7.65 1571.5 5.15 1570.5 4.15"/>
  <polygon class="cls-1" points="2448.5 4.15 2446 4.4 2446 5.65 2445.25 6.15 2445 7.65 2444.25 8.15 2444 9.65 2443.25 10.15 2443 11.65 2442.25 12.15 2442 14.65 2441.25 15.15 2441 16.65 2440.25 17.15 2440 18.65 2439.25 19.15 2439 20.65 2438.25 21.15 2438 23.65 2437.25 24.15 2437 25.65 2436.25 26.15 2436 27.65 2435.25 28.15 2435 29.65 2434.25 30.15 2434 31.65 2433.25 32.15 2433 34.65 2432.25 35.15 2432 36.65 2431.25 37.15 2431 38.65 2430.25 39.15 2430 40.65 2429.25 41.15 2429 43.65 2428.25 44.15 2428 45.65 2427.25 46.15 2427 47.65 2426.25 48.15 2426 49.65 2425.25 50.15 2425 52.65 2424.25 53.15 2424 54.65 2423.25 55.15 2423 56.65 2422.25 57.15 2422 58.65 2421.25 59.15 2421 61.65 2420.25 62.15 2420 63.65 2419.25 64.15 2419 65.65 2418.25 66.15 2418 67.65 2417.25 68.15 2417 70.65 2416.25 71.15 2416 72.65 2415.25 73.15 2415 74.65 2414.25 75.15 2414 76.65 2413.25 77.15 2413 78.65 2412.25 79.15 2412 81.65 2411.25 82.15 2411 83.65 2410.25 84.15 2410 85.65 2409.25 86.15 2409 87.65 2408.25 88.15 2408 90.65 2407.25 91.15 2407 92.65 2406.25 93.15 2406 94.65 2405.25 95.15 2405 96.65 2404.25 97.15 2404 99.65 2403.25 100.15 2403 101.65 2402.25 102.15 2402 103.65 2401.25 104.15 2401 105.65 2400.25 106.15 2400 108.65 2399.25 109.15 2399 110.65 2398.25 111.15 2398 112.65 2397.25 113.15 2397 114.65 2396.25 115.15 2396 117.65 2395.25 118.15 2395 119.65 2394.25 120.15 2394 121.65 2393.25 122.15 2393 123.65 2392.25 124.15 2392 125.65 2391.25 126.15 2391 128.65 2390.25 129.15 2390 130.65 2389.25 131.15 2389 132.65 2388.25 133.15 2388 134.65 2387.25 135.15 2387 137.65 2386.25 138.15 2386 139.65 2385.25 140.15 2385 141.65 2384.25 142.15 2384 143.65 2383.25 144.15 2383 146.65 2382.25 147.15 2382 148.65 2381.25 149.15 2381 150.65 2380.25 151.15 2380 152.65 2379.25 153.15 2379 155.65 2378.25 156.15 2378 157.65 2377.25 158.15 2377 159.65 2376.25 160.15 2376 161.65 2375.25 162.15 2375 163.65 2374.25 164.15 2374 166.65 2373.25 167.15 2373 168.65 2372.25 169.15 2372 170.65 2371.25 171.15 2371 172.65 2370.25 173.15 2370 175.65 2369.25 176.15 2369 177.65 2368.25 178.15 2368 179.65 2367.25 180.15 2367 181.65 2366.25 182.15 2366 184.65 2365.25 185.15 2365 186.65 2364.25 187.15 2364 188.65 2363.25 189.15 2363 190.65 2362.25 191.15 2362 193.65 2361.25 194.15 2361 195.65 2360.25 196.15 2360 197.65 2359.25 198.15 2359 199.65 2358.25 200.15 2358 202.65 2357.25 203.15 2357 204.65 2356.25 205.15 2356 206.65 2355.25 207.15 2355 208.65 2354.25 209.15 2354 210.65 2353.25 211.15 2353.25 212.9 2391.75 212.65 2392.5 211.9 2392.75 210.4 2393.5 209.9 2393.75 208.4 2394.5 207.9 2394.75 205.4 2395.5 204.9 2395.75 203.4 2396.5 202.9 2396.75 201.4 2397.5 200.9 2397.75 198.4 2398.5 197.9 2398.75 196.4 2399.5 195.9 2399.75 194.4 2400.5 193.9 2400.75 191.4 2401.5 190.9 2401.75 189.4 2402.5 188.9 2402.75 187.4 2403.5 186.9 2403.75 184.4 2404.5 183.9 2404.75 182.4 2405.5 181.9 2405.75 180.4 2406.5 179.9 2406.75 177.4 2407.5 176.9 2407.75 175.4 2408.5 174.9 2408.75 173.4 2409.5 172.9 2409.75 170.4 2410.5 169.9 2410.75 168.4 2411.5 167.9 2411.75 166.4 2412.5 165.9 2412.75 163.4 2413.5 162.9 2413.75 161.4 2414.5 160.9 2414.75 159.4 2415.5 158.9 2415.75 157.4 2416.5 156.9 2416.75 154.4 2417.5 153.9 2417.75 152.4 2418.5 151.9 2418.75 150.4 2419.5 149.9 2419.75 147.4 2420.5 146.9 2420.75 145.4 2421.5 144.9 2421.75 143.4 2422.5 142.9 2422.75 140.4 2423.5 139.9 2423.75 138.4 2424.5 137.9 2424.75 136.4 2425.5 135.9 2425.75 133.4 2426.5 132.9 2426.75 131.4 2427.5 130.9 2427.75 129.4 2428.5 128.9 2428.75 126.4 2429.5 125.9 2429.75 124.4 2430.5 123.9 2430.75 122.4 2431.5 121.9 2431.75 119.4 2432.5 118.9 2432.75 117.4 2433.5 116.9 2433.75 115.4 2434.5 114.9 2434.75 112.4 2435.5 111.9 2435.75 110.4 2436.5 109.9 2436.75 108.4 2437.5 107.9 2437.75 105.4 2438.5 104.9 2438.75 103.4 2439.5 102.9 2439.75 101.4 2440.5 100.9 2440.75 98.4 2441.5 97.9 2442.75 94.4 2444.25 92.9 2445 93.15 2445.25 94.9 2446 95.4 2446.25 97.9 2447 98.4 2447.25 100.9 2448 101.4 2448.25 102.9 2449 103.4 2449.25 105.9 2450 106.4 2450.25 108.9 2451 109.4 2451.25 110.9 2452 111.4 2452.25 113.9 2453 114.4 2453.25 115.9 2454 116.4 2454.25 118.9 2455 119.4 2455.25 121.9 2456 122.4 2456.25 123.9 2457 124.4 2457.25 126.9 2458 127.4 2458.25 129.9 2459 130.4 2459.25 131.9 2460 132.4 2460.25 134.9 2461 135.4 2461.25 137.9 2462 138.4 2462.25 139.9 2463 140.4 2463.25 142.9 2464 143.4 2464.25 144.9 2465 145.4 2465.25 147.9 2466 148.4 2466.25 150.9 2467 151.4 2467.25 152.9 2468 153.4 2468.25 155.9 2469 156.4 2469.25 158.9 2470 159.4 2470.25 160.9 2471 161.4 2471.25 163.9 2472 164.4 2472.25 165.9 2473 166.4 2473.25 168.9 2474 169.4 2474.25 171.9 2475 172.4 2475.25 173.9 2476 174.4 2476.25 176.9 2477 177.4 2477.25 179.9 2478 180.4 2478.25 181.9 2479 182.4 2479.25 184.9 2480 185.4 2480.25 186.9 2481 187.4 2481.25 189.9 2482 190.4 2482.25 192.9 2483 193.4 2483.25 194.9 2484 195.4 2484.25 197.9 2485 198.4 2485.25 200.9 2486 201.4 2486.25 202.9 2487 203.4 2487.25 205.9 2488 206.4 2488.25 208.9 2489 209.4 2489.25 210.9 2490 211.4 2490.25 213.9 2535.75 213.65 2535.5 211.15 2534.75 210.65 2534.5 209.15 2533.75 208.65 2533.5 206.15 2532.75 205.65 2532.5 204.15 2531.75 203.65 2531.5 202.15 2530.75 201.65 2530.5 199.15 2529.75 198.65 2529.5 197.15 2528.75 196.65 2528.5 194.15 2527.75 193.65 2527.5 192.15 2526.75 191.65 2526.5 190.15 2525.75 189.65 2525.5 187.15 2524.75 186.65 2524.5 185.15 2523.75 184.65 2523.5 183.15 2522.75 182.65 2522.5 180.15 2521.75 179.65 2521.5 178.15 2520.75 177.65 2520.5 175.15 2519.75 174.65 2519.5 173.15 2518.75 172.65 2518.5 171.15 2517.75 170.65 2517.5 168.15 2516.75 167.65 2516.5 166.15 2515.75 165.65 2515.5 164.15 2514.75 163.65 2514.5 161.15 2513.75 160.65 2513.5 159.15 2512.75 158.65 2512.5 156.15 2511.75 155.65 2511.5 154.15 2510.75 153.65 2510.5 152.15 2509.75 151.65 2509.5 149.15 2508.75 148.65 2508.5 147.15 2507.75 146.65 2507.5 145.15 2506.75 144.65 2506.5 142.15 2505.75 141.65 2505.5 140.15 2504.75 139.65 2504.5 137.15 2503.75 136.65 2503.5 135.15 2502.75 134.65 2502.5 133.15 2501.75 132.65 2501.5 130.15 2500.75 129.65 2500.5 128.15 2499.75 127.65 2499.5 126.15 2498.75 125.65 2498.5 123.15 2497.75 122.65 2497.5 121.15 2496.75 120.65 2496.5 118.15 2495.75 117.65 2495.5 116.15 2494.75 115.65 2494.5 114.15 2493.75 113.65 2493.5 111.15 2492.75 110.65 2492.5 109.15 2491.75 108.65 2491.5 107.15 2490.75 106.65 2490.5 104.15 2489.75 103.65 2489.5 102.15 2488.75 101.65 2488.5 99.15 2487.75 98.65 2487.5 97.15 2486.75 96.65 2486.5 95.15 2485.75 94.65 2485.5 92.15 2484.75 91.65 2484.5 90.15 2483.75 89.65 2483.5 88.15 2482.75 87.65 2482.5 85.15 2481.75 84.65 2481.5 83.15 2480.75 82.65 2480.5 80.15 2479.75 79.65 2479.5 78.15 2478.75 77.65 2478.5 76.15 2477.75 75.65 2477.5 73.15 2476.75 72.65 2476.5 71.15 2475.75 70.65 2475.5 68.15 2474.75 67.65 2474.5 66.15 2473.75 65.65 2473.5 64.15 2472.75 63.65 2472.5 61.15 2471.75 60.65 2471.5 59.15 2470.75 58.65 2470.5 57.15 2469.75 56.65 2469.5 54.15 2468.75 53.65 2468.5 52.15 2467.75 51.65 2467.5 49.15 2466.75 48.65 2466.5 47.15 2465.75 46.65 2465.5 45.15 2464.75 44.65 2464.5 42.15 2463.75 41.65 2463.5 40.15 2462.75 39.65 2462.5 38.15 2461.75 37.65 2461.5 35.15 2460.75 34.65 2460.5 33.15 2459.75 32.65 2459.5 30.15 2458.75 29.65 2458.5 28.15 2457.75 27.65 2457.5 26.15 2456.75 25.65 2456.5 23.15 2455.75 22.65 2455.5 21.15 2454.75 20.65 2454.5 19.15 2453.75 18.65 2453.5 16.15 2452.75 15.65 2452.5 14.15 2451.75 13.65 2451.5 11.15 2450.75 10.65 2450.5 9.15 2449.75 8.65 2449.5 7.15 2448.75 6.65 2448.5 4.15"/>
  <polygon class="cls-2" points="76 9.4 75.5 10.15 72 10.4 71.5 11.15 68 11.4 67.5 12.15 65 12.4 64.5 13.15 63 13.4 62.5 14.15 60 14.4 59.5 15.15 58 15.4 57.5 16.15 56 16.4 55.5 17.15 54 17.4 53.5 18.15 50 19.4 48.5 21.15 45 22.4 42.5 25.15 41 25.4 38.5 28.15 37 28.4 24.25 41.15 24 42.65 21.25 45.15 21 46.65 19.25 48.15 19 49.65 17.25 51.15 17 52.65 16.25 53.15 16 54.65 15.25 55.15 15 56.65 14.25 57.15 14 58.65 13.25 59.15 13 60.65 12.25 61.15 12 62.65 11.25 63.15 11 65.65 10.25 66.15 10 67.65 9.25 68.15 9 70.65 8.25 71.15 8 73.65 7.25 74.15 7 77.65 6.25 78.15 6 81.65 5.25 82.15 5 86.65 4.25 87.15 4 92.65 3.25 93.15 3 101.65 2 102.15 2 120.9 3 121.4 3.25 129.9 4 130.4 4.25 134.9 5 135.4 5.25 139.9 6 140.4 6.25 142.9 7 143.4 7.25 145.9 8 146.4 8.25 148.9 9 149.4 9.25 151.9 10 152.4 10.25 153.9 11 154.4 11.25 155.9 12 156.4 12.25 157.9 13 158.4 13.25 159.9 14 160.4 14.25 161.9 15 162.4 16.25 165.9 18 167.4 18.25 168.9 20 170.4 20.25 171.9 22 173.4 22.25 174.9 27 179.4 27.25 180.9 35 188.65 36.5 188.9 40 192.65 41.5 192.9 43 194.65 44.5 194.9 46 196.65 49.5 197.9 51 199.65 52.5 199.9 53 200.65 54.5 200.9 55 201.65 56.5 201.9 57 202.65 58.5 202.9 59 203.65 61.5 203.9 62 204.65 63.5 204.9 64 205.65 66.5 205.9 67 206.65 69.5 206.9 70 207.65 72.5 207.9 73 208.65 76.5 208.9 77 209.65 80.5 209.9 81 210.65 86.5 210.9 87 211.65 97.5 211.9 98 212.65 108.75 212.65 109.25 211.9 120.75 211.65 121.25 210.9 126.75 210.65 127.25 209.9 130.75 209.65 131.25 208.9 133.75 208.65 134.25 207.9 136.75 207.65 137.25 206.9 139.75 206.65 140.25 205.9 142.75 205.65 143.25 204.9 144.75 204.65 145.25 203.9 147.75 203.65 148.25 202.9 149.75 202.65 150.25 201.9 151.75 201.65 152.25 200.9 155.75 199.65 157.25 197.9 160.75 196.65 162.25 194.9 163.75 194.65 164.75 193.4 164 192.9 163.5 191.15 162.75 190.65 162.5 188.15 161.75 187.65 161.5 186.15 160.75 185.65 160.5 184.15 159.75 183.65 159.5 182.15 158.75 181.65 158.5 180.15 157.75 179.65 157.5 177.15 156.75 176.65 156.5 175.15 155.75 174.65 155.5 173.15 154.75 172.65 154.5 171.15 153.75 170.65 153.5 169.15 152.75 168.65 152.5 167.15 151.75 166.65 151.5 164.15 150.75 163.65 149.5 160.15 148.25 159.15 146.5 161.15 145 161.4 143.5 163.15 142 163.4 140.5 165.15 139 165.4 137.5 167.15 136 167.4 135.5 168.15 134 168.4 133.5 169.15 131 169.4 130.5 170.15 129 170.4 128.5 171.15 126 171.4 125.5 172.15 123 172.4 122.5 173.15 118 173.4 117.5 174.15 109 174.4 108.5 175.15 99.25 175.15 98.75 174.4 91.25 174.15 90.75 173.4 87.25 173.15 86.75 172.4 83.25 172.15 82.75 171.4 80.25 171.15 79.75 170.4 78.25 170.15 77.75 169.4 76.25 169.15 75.75 168.4 74.25 168.15 73.75 167.4 70.25 166.15 67.75 163.4 66.25 163.15 55.75 152.65 55.5 151.15 53.75 149.65 53.5 148.15 51.75 146.65 51.5 145.15 50.75 144.65 50.5 143.15 49.75 142.65 49.5 141.15 48.75 140.65 48.5 138.15 47.75 137.65 47.5 136.15 46.75 135.65 46.5 132.15 45.75 131.65 45.5 129.15 44.75 128.65 44.5 123.15 43.75 122.65 43.5 113.15 42.75 112.65 42.75 107.4 43.5 106.9 43.75 98.4 44.5 97.9 44.75 93.4 45.5 92.9 45.75 89.4 46.5 88.9 46.75 86.4 47.5 85.9 47.75 83.4 48.5 82.9 48.75 81.4 49.5 80.9 49.75 79.4 50.5 78.9 50.75 77.4 51.5 76.9 52.75 73.4 54.5 71.9 54.75 70.4 57.5 67.9 57.75 66.4 66.25 57.9 67.75 57.65 69.25 55.9 70.75 55.65 72.25 53.9 75.75 52.65 77.25 50.9 79.75 50.65 80.25 49.9 81.75 49.65 82.25 48.9 83.75 48.65 84.25 47.9 86.75 47.65 87.25 46.9 90.75 46.65 91.25 45.9 112.5 45.9 113 46.65 117.5 46.9 118 47.65 120.5 47.9 121 48.65 123.5 48.9 124 49.65 125.5 49.9 126 50.65 128.5 50.9 129 51.65 130.5 51.9 132 53.65 133.5 53.9 134 54.65 137.5 55.9 139 57.65 140.5 57.9 142 59.65 143.5 59.9 145.5 61.9 146.5 60.9 146.75 58.4 147.5 57.9 147.75 56.4 148.5 55.9 148.75 53.4 149.5 52.9 149.75 51.4 150.5 50.9 150.75 49.4 151.5 48.9 151.75 46.4 152.5 45.9 152.75 44.4 153.5 43.9 153.75 41.4 154.5 40.9 154.75 39.4 155.5 38.9 155.75 36.4 156.5 35.9 156.75 34.4 157.5 33.9 157.75 31.4 158.5 30.9 158.75 29.4 159.5 28.9 159.75 27.4 160.5 26.9 160.5 24.15 158.75 22.4 157.25 22.15 156.75 21.4 155.25 21.15 154.75 20.4 153.25 20.15 152.75 19.4 151.25 19.15 150.75 18.4 149.25 18.15 148.75 17.4 146.25 17.15 145.75 16.4 144.25 16.15 143.75 15.4 141.25 15.15 140.75 14.4 139.25 14.15 138.75 13.4 136.25 13.15 135.75 12.4 133.25 12.15 132.75 11.4 130.25 11.15 129.75 10.4 126.25 10.15 125.75 9.4 120.25 9.15 119.75 8.4 111.25 8.15 110.75 7.4 91 7.4 90.5 8.15 82 8.4 81.5 9.15 76 9.4"/>
  <path class="cls-1" d="M2335.7,72.25h-38.6c-1.4-20.9-15.5-31.4-42.1-31.4-10.6,0-19.1,2.3-25.3,6.8-6.3,4.5-9.4,10.5-9.4,18s2.7,12.8,8,16.4c5.3,3.6,15.3,6.9,30,9.8l31.4,6.1c18.6,3.6,32.1,9.8,40.5,18.6,8.4,8.7,12.7,20.9,12.7,36.7,0,20.4-7.3,36.3-21.8,47.8s-34.7,17.2-60.6,17.2-45.7-5.7-59.9-17c-14.2-11.4-22-27.9-23.3-49.3h40.2c.8,10.8,5,19.1,12.7,24.7,7.7,5.7,18.6,8.6,32.5,8.6,12.5,0,22.4-2.4,29.6-7.2,7.3-4.8,10.9-11.4,10.9-19.8s-2.8-14.3-8.5-18.7c-5.7-4.4-15.5-7.9-29.2-10.5l-28.1-5.5c-20.4-3.9-34.9-9.9-43.5-18.2-8.7-8.3-13-20.2-13-35.8,0-19.7,6.7-34.8,20-45.6,13.3-10.7,32-16.1,56-16.1,7,0,13.8.5,20.3,1.4s13.4,2.8,20.8,5.6c7.3,2.9,13.7,6.5,19,11s9.8,10.8,13.3,18.8c3.6,8,5.4,17.2,5.4,27.6Z"/>
  <polygon class="cls-2" points="1718 11.4 1718.25 211.9 1852.75 211.65 1852.5 174.15 1758.25 174.15 1757.75 173.65 1757.5 11.15 1718 11.4"/>
  <polygon class="cls-1" points="1967 11.15 1967.25 142.65 1969.75 154.9 1972.5 162.15 1978 172.65 1983 179.65 1994 190.9 2005.75 199.4 2019 205.9 2027 208.65 2037.25 211.15 2048.75 212.9 2066.25 212.9 2077.75 211.15 2088 208.65 2096 205.9 2109.25 199.4 2121 190.9 2132 179.65 2135.75 174.65 2139 169.15 2142.5 162.15 2145 155.65 2147.5 144.4 2148 138.4 2148 11.15 2109.25 11.15 2109.25 136.65 2108 143.9 2104.75 151.4 2101.75 155.4 2096.25 161.15 2090.25 165.65 2083.5 169.15 2075.25 172.15 2067 173.9 2059.75 174.4 2051 174.15 2043.75 173.15 2031.5 169.15 2024.75 165.65 2018.5 160.9 2013.25 155.4 2010.25 151.4 2007 143.9 2005.75 136.9 2005.75 11.15 1967 11.15"/>
  <polygon class="cls-2" points="1464.75 12.15 1417 12.4 1417 14.65 1416.25 15.15 1416 16.65 1415.25 17.15 1415 19.65 1414.25 20.15 1414 22.65 1413.25 23.15 1413 24.65 1412.25 25.15 1412 27.65 1411.25 28.15 1411 29.65 1410.25 30.15 1410 32.65 1409.25 33.15 1409 35.65 1408.25 36.15 1408 37.65 1407.25 38.15 1407 40.65 1406.25 41.15 1406 43.65 1405.25 44.15 1405 45.65 1404.25 46.15 1404 48.65 1403.25 49.15 1403 51.65 1402.25 52.15 1402 53.65 1401.25 54.15 1401 56.65 1400.25 57.15 1400 59.65 1399.25 60.15 1399 61.65 1398.25 62.15 1398 64.65 1397.25 65.15 1397 67.65 1396.25 68.15 1396 69.65 1395.25 70.15 1395 72.65 1394.25 73.15 1394 74.65 1393.25 75.15 1393 77.65 1392.25 78.15 1392 80.65 1391.25 81.15 1391 82.65 1390.25 83.15 1390 85.65 1389.25 86.15 1389 88.65 1388.25 89.15 1388 90.65 1387.25 91.15 1387 93.65 1386.25 94.15 1386 96.65 1385.25 97.15 1385 98.65 1384.25 99.15 1384 101.65 1383.25 102.15 1383 104.65 1382.25 105.15 1382 106.65 1381.25 107.15 1381 109.65 1380.25 110.15 1380 112.65 1379.25 113.15 1379 114.65 1378.25 115.15 1378 117.65 1377.25 118.15 1377 119.65 1376.25 120.15 1376 122.65 1374.5 124.15 1373.75 123.9 1373.5 122.15 1372.75 121.65 1372.5 119.15 1371.75 118.65 1371.5 117.15 1370.75 116.65 1370.5 114.15 1369.75 113.65 1369.5 112.15 1368.75 111.65 1368.5 109.15 1367.75 108.65 1367.5 107.15 1366.75 106.65 1366.5 104.15 1365.75 103.65 1365.5 102.15 1364.75 101.65 1364.5 100.15 1363.75 99.65 1363.5 97.15 1362.75 96.65 1362.5 95.15 1361.75 94.65 1361.5 92.15 1360.75 91.65 1360.5 90.15 1359.75 89.65 1359.5 87.15 1358.75 86.65 1358.5 85.15 1357.75 84.65 1357.5 82.15 1356.75 81.65 1356.5 80.15 1355.75 79.65 1355.5 77.15 1354.75 76.65 1354.5 75.15 1353.75 74.65 1353.5 73.15 1352.75 72.65 1352.5 70.15 1351.75 69.65 1351.5 68.15 1350.75 67.65 1350.5 65.15 1349.75 64.65 1349.5 63.15 1348.75 62.65 1348.5 60.15 1347.75 59.65 1347.5 58.15 1346.75 57.65 1346.5 55.15 1345.75 54.65 1345.5 53.15 1344.75 52.65 1344.5 50.15 1343.75 49.65 1343.5 48.15 1342.75 47.65 1342.5 45.15 1341.75 44.65 1341.5 43.15 1340.75 42.65 1340.5 41.15 1339.75 40.65 1339.5 38.15 1338.75 37.65 1338.5 36.15 1337.75 35.65 1337.5 33.15 1336.75 32.65 1336.5 31.15 1335.75 30.65 1335.5 28.15 1334.75 27.65 1334.5 26.15 1333.75 25.65 1333.5 23.15 1332.75 22.65 1332.5 21.15 1331.75 20.65 1331.5 18.15 1330.75 17.65 1330.5 16.15 1329.75 15.65 1329.5 13.15 1328.5 12.15 1327.75 12.9 1282 13.4 1282.25 15.9 1283 16.4 1283.25 17.9 1284 18.4 1284.25 19.9 1285 20.4 1285.25 21.9 1286 22.4 1286.25 24.9 1287 25.4 1287.25 26.9 1288 27.4 1288.25 28.9 1289 29.4 1289.25 31.9 1290 32.4 1290.25 33.9 1291 34.4 1291.25 35.9 1292 36.4 1292.25 37.9 1293 38.4 1293.25 40.9 1294 41.4 1294.25 42.9 1295 43.4 1295.25 44.9 1296 45.4 1296.25 46.9 1297 47.4 1297.25 49.9 1298 50.4 1298.25 51.9 1299 52.4 1299.25 53.9 1300 54.4 1300.25 56.9 1301 57.4 1301.25 58.9 1302 59.4 1302.25 60.9 1303 61.4 1303.25 62.9 1304 63.4 1304.25 65.9 1305 66.4 1305.25 67.9 1306 68.4 1306.25 69.9 1307 70.4 1307.25 72.9 1308 73.4 1308.25 74.9 1309 75.4 1309.25 76.9 1310 77.4 1310.25 78.9 1311 79.4 1311.25 81.9 1312 82.4 1312.25 83.9 1313 84.4 1313.25 85.9 1314 86.4 1314.25 88.9 1315 89.4 1315.25 90.9 1316 91.4 1316.25 92.9 1317 93.4 1317.25 94.9 1318 95.4 1318.25 97.9 1319 98.4 1319.25 99.9 1320 100.4 1320.25 101.9 1321 102.4 1321.25 104.9 1322 105.4 1322.25 106.9 1323 107.4 1323.25 108.9 1324 109.4 1324.25 110.9 1325 111.4 1325.25 113.9 1326 114.4 1326.25 115.9 1327 116.4 1327.25 117.9 1328 118.4 1328.25 119.9 1329 120.4 1329.25 122.9 1330 123.4 1330.25 124.9 1331 125.4 1331.25 126.9 1332 127.4 1332.25 129.9 1333 130.4 1333.25 131.9 1334 132.4 1334.25 133.9 1335 134.4 1335.25 135.9 1336 136.4 1336.25 138.9 1337 139.4 1337.25 140.9 1338 141.4 1338.25 142.9 1339 143.4 1339.25 145.9 1340 146.4 1340.25 147.9 1341 148.4 1341.25 149.9 1342 150.4 1342.25 151.9 1343 152.4 1343.25 154.9 1344 155.4 1344.25 156.9 1345 157.4 1345.25 158.9 1346 159.4 1346.25 161.9 1347 162.4 1347.25 163.9 1348 164.4 1348.25 165.9 1349 166.4 1349.25 167.9 1350 168.4 1350.25 170.9 1351 171.4 1351.25 172.9 1352 173.4 1352.25 174.9 1353 175.4 1353.25 176.9 1354 177.4 1354.25 179.9 1355 180.4 1355.25 181.9 1356 182.4 1356.25 183.9 1357 184.4 1357.25 186.9 1358 187.4 1358.25 188.9 1359 189.4 1359.25 190.9 1360 191.4 1360.25 192.9 1361 193.4 1361.25 195.9 1362 196.4 1362.25 197.9 1363 198.4 1363.25 199.9 1364 200.4 1364.25 202.9 1365 203.4 1365.25 204.9 1366 205.4 1366.25 206.9 1367 207.4 1367.25 208.9 1368 209.4 1368.25 211.9 1369 212.4 1369.25 213.9 1370 214.4 1370.25 215.9 1371 216.4 1371.25 218.9 1372 219.4 1372.25 220.9 1373.25 221.9 1373.75 221.9 1373.75 220.4 1374.5 219.9 1374.75 218.4 1375.5 217.9 1375.75 216.4 1376.5 215.9 1376.75 213.4 1377.5 212.9 1377.75 211.4 1378.5 210.9 1378.75 209.4 1379.5 208.9 1379.75 207.4 1380.5 206.9 1380.75 204.4 1381.5 203.9 1381.75 202.4 1382.5 201.9 1382.75 200.4 1383.5 199.9 1383.75 197.4 1384.5 196.9 1384.75 195.4 1385.5 194.9 1385.75 193.4 1386.5 192.9 1386.75 190.4 1387.5 189.9 1387.75 188.4 1388.5 187.9 1388.75 186.4 1389.5 185.9 1389.75 184.4 1390.5 183.9 1390.75 181.4 1391.5 180.9 1391.75 179.4 1392.5 178.9 1392.75 177.4 1393.5 176.9 1393.75 174.4 1394.5 173.9 1394.75 172.4 1395.5 171.9 1395.75 170.4 1396.5 169.9 1396.75 167.4 1397.5 166.9 1397.75 165.4 1398.5 164.9 1398.75 163.4 1399.5 162.9 1399.75 160.4 1400.5 159.9 1400.75 158.4 1401.5 157.9 1401.75 156.4 1402.5 155.9 1402.75 154.4 1403.5 153.9 1403.75 151.4 1404.5 150.9 1404.75 149.4 1405.5 148.9 1405.75 147.4 1406.5 146.9 1406.75 144.4 1407.5 143.9 1407.75 142.4 1408.5 141.9 1408.75 140.4 1409.5 139.9 1409.75 137.4 1410.5 136.9 1410.75 135.4 1411.5 134.9 1411.75 133.4 1412.5 132.9 1412.75 130.4 1413.5 129.9 1413.75 128.4 1414.5 127.9 1414.75 126.4 1415.5 125.9 1415.75 124.4 1416.5 123.9 1416.75 121.4 1417.5 120.9 1417.75 119.4 1418.5 118.9 1418.75 117.4 1419.5 116.9 1419.75 114.4 1420.5 113.9 1420.75 112.4 1421.5 111.9 1421.75 110.4 1422.5 109.9 1422.75 107.4 1423.5 106.9 1423.75 105.4 1424.5 104.9 1424.75 103.4 1425.5 102.9 1425.75 101.4 1426.5 100.9 1426.75 98.4 1427.5 97.9 1427.75 96.4 1428.5 95.9 1428.75 94.4 1429.5 93.9 1429.75 91.4 1430.5 90.9 1430.75 89.4 1431.5 88.9 1431.75 87.4 1432.5 86.9 1432.75 84.4 1433.5 83.9 1433.75 82.4 1434.5 81.9 1434.75 80.4 1435.5 79.9 1435.75 77.4 1436.5 76.9 1436.75 75.4 1437.5 74.9 1437.75 73.4 1438.5 72.9 1438.75 71.4 1439.5 70.9 1439.75 68.4 1440.5 67.9 1440.75 66.4 1441.5 65.9 1441.75 64.4 1442.5 63.9 1442.75 61.4 1443.5 60.9 1443.75 59.4 1444.5 58.9 1444.75 57.4 1445.5 56.9 1445.75 54.4 1446.5 53.9 1446.75 52.4 1447.5 51.9 1447.75 50.4 1448.5 49.9 1448.75 47.4 1449.5 46.9 1449.75 45.4 1450.5 44.9 1450.75 43.4 1451.5 42.9 1451.75 41.4 1452.5 40.9 1452.75 38.4 1453.5 37.9 1453.75 36.4 1454.5 35.9 1454.75 34.4 1455.5 33.9 1455.75 31.4 1456.5 30.9 1456.75 29.4 1457.5 28.9 1457.75 27.4 1458.5 26.9 1458.75 24.4 1459.5 23.9 1459.75 22.4 1460.5 21.9 1460.75 20.4 1461.5 19.9 1461.75 17.4 1462.5 16.9 1462.75 15.4 1463.5 14.9 1464.75 12.15"/>
  <polygon class="cls-2" points="208 178.65 210 180.65 211.5 180.9 214 183.65 215.5 183.9 219 187.65 220.5 187.9 223 190.65 224.5 190.9 227 193.65 228.5 193.9 232 197.65 233.5 197.9 236 200.65 237.5 200.9 240 203.65 241.75 204.15 242.5 204.9 291.25 155.9 292.5 155.9 303 166.4 303.25 167.9 318 182.4 318.25 183.9 332 197.4 332.25 198.9 338.5 204.9 367.25 175.9 368.75 175.65 388.25 155.9 389.5 155.9 397 163.4 397.25 164.9 410 177.4 410.25 178.9 423 191.4 423.25 192.9 435.5 204.9 441.25 198.9 442.75 198.65 448.25 192.9 449.75 192.65 454.25 187.9 455.75 187.65 460.25 182.9 461.75 182.65 464.75 179.65 463.5 176.15 446.75 159.65 446.5 158.15 426.75 138.65 426.5 137.15 406.75 117.65 406.5 116.15 389.75 99.65 389.75 98.15 387 99.4 359.5 127.15 358 127.4 338.25 147.15 328.75 137.65 328.5 136.15 307.75 115.65 307.5 114.15 291.5 98.15 288.5 101.15 287 101.4 256.5 132.15 255 132.4 223.5 164.15 222 164.4 208 178.65"/>
</svg>