<?xml version="1.0" encoding="UTF-8"?>
<svg id="Layer_1" data-name="Layer 1" xmlns="http://www.w3.org/2000/svg" viewBox="0 0 879.86 326.72">
  <defs>
    <style>
      .cls-1 {
        fill: #e8e8e9;
      }

      .cls-2, .cls-3 {
        fill: #fff;
      }

      .cls-4 {
        fill: #2e3192;
      }

      .cls-3 {
        stroke: #fff;
        stroke-miterlimit: 10;
      }

      .cls-5 {
        fill: #ec1c24;
      }
    </style>
  </defs>
  <path class="cls-2" d="M346.99,77.45l-1.92,4.05-4.23-6.7c-.89.03-1.67.13-2.22.95l.19,12.25-4.06.13c-.96-.12-2.38-.39-2.47-1.08-.26-1.85-.44-19.74-.02-20.69s1.5-1.37,2.47-1.74c.55-2.9,1.44-3.69,2.66-2.37.93-.31,2.08-.67,2.83-.15.61.43,7.44,11.26,7.94,12.58l-1.17,2.78Z"/>
  <path class="cls-1" d="M340.84,74.8l-2.22.95c-.01-.72-.37-1.41-.24-2.31.08-.56.75-.74,1.24-.13l1.21,1.5Z"/>
  <path class="cls-1" d="M337.39,62.24l-2.66,2.37.07-5.52c1.84.55,1.87,2,2.59,3.14Z"/>
  <polygon class="cls-2" points="874.58 197.93 797.23 197.94 673.52 67.94 673.07 197.91 614.09 197.9 614.11 1.47 693.01 1.43 815.19 131.6 815.31 1.41 874.58 1.44 874.58 197.93"/>
  <polygon class="cls-2" points="870.42 193.38 799.15 193.9 669.15 57.21 669.07 193.56 618.27 193.86 618.23 5.59 690.95 5.48 819.16 141.66 819.5 5.6 870.35 5.63 870.42 193.38"/>
  <path class="cls-2" d="M177.91,146.8c9.81-.01,16.16-5.64,16.71-14.67l.61-9.99,59.95.02-.65,32.32c-.36,18.12-12.02,32.52-29.12,38.76-10.76,4.28-22.04,6.62-34.17,6.61h-119.59c-13.85,0-26.83-2.43-39.05-7.93C10.49,181.95,0,159.81,0,135.7L.02,62.93c0-23.24,10.57-44.72,31.94-54.3C45.17,2.71,59.2.12,74.1.11L187.54,0c32.77-.03,62.83,11.16,66.74,45.62l.82,27.94h-60.53c.2-4.43.75-8.57-1.14-12.75-2.06-4.57-7.73-7.41-13.28-7.4l-99.83.21c-9.43.02-16.63,7.63-16.62,16.72l.05,60.36c0,4.79,1.73,8.73,4.28,11.66,3.07,3.54,7.16,4.54,12.43,4.53l97.45-.1Z"/>
  <path class="cls-3" d="M193.73,145.03c4.85-4.93,5.34-11.34,5.25-18.53l51.86-.37c1.07,25.54.85,50.47-23.6,61.75-12.17,5.62-24.94,8.09-38.71,8.1l-115.56.02c-11.86,0-22.81-1.79-33.62-5.64-26.18-9.33-35.48-32.2-35.29-59.58l.51-72.65c.17-24.04,15.34-42.65,38.01-49.15,11.11-3.19,22.03-4.88,33.98-4.89l105.62-.09c13.84-.01,27.05,1.17,39.93,5.67,25.53,8.91,30.44,33.25,28.71,59.85l-52.03-.05c1.09-12.05-6.45-20.07-17.41-20.08l-99.94-.09c-12.21-.01-21.93,8.76-21.94,21.18l-.05,60.2c0,11.92,8.48,20.35,20.38,20.34l96.72-.08c6.14,0,12.79-1.43,17.18-5.9Z"/>
  <path class="cls-2" d="M529.28,104.28l-50.08-46.54-26.75,24.61c-8.35,7.17-16.02,14.24-24.03,22.05l-50.55-46.85-50.39,46.79-33.1-25.35,57.89-51.87,25.42-23.02,13.35,12.01,37.57,33.52,37.47-33.89,12.87-11.76,53.38,48.28,29.33,26.97-32.37,25.05Z"/>
  <polygon class="cls-4" points="479.25 147.39 428.29 193.9 377.71 147.27 327.45 193.85 294.71 168.58 342.65 125.3 377.43 93.76 428.3 139.51 446.21 123.56 479.41 93.73 561.58 168.52 529.2 193.73 479.25 147.39"/>
  <polygon class="cls-2" points="100.3 325.49 76.34 325.26 23.21 270.44 22.64 325.58 2.83 325.54 2.83 245.09 26.59 245.14 80.12 300.68 80.24 245.16 100.38 245.11 100.3 325.49"/>
  <path class="cls-2" d="M96.48,321.7l-18.1-.03-59.21-61.81-.36,61.37c-4.23.98-7.72,1-12.08,0v-72.06s18.19-.21,18.19-.21l59.09,61.74.44-61.57,12.02.16.02,72.42Z"/>
  <polygon class="cls-2" points="295.69 245.18 318.26 244.96 274.69 325.44 253.07 325.58 209.88 245.07 232.09 245.01 263.94 303.61 295.69 245.18"/>
  <path class="cls-2" d="M237.93,289.04c1.32-4.84,9.18-6.14,12.02-1.32l2.27,3.75c-1.62.87-1.09,1.82,1.57,2.84l10.08,17.7,34.48-62.92c4.89-.3,8.58-.6,12.91.4l-39.34,72.46-16.64-.29-17.34-32.6Z"/>
  <path class="cls-2" d="M239.46,267.57c2.38,4.89-6.41,11.33-9.34,6.71l-13.36-24.93c4.81-.85,8.62-.71,12.84-.06l9.86,18.28Z"/>
  <path class="cls-2" d="M249.95,287.72c-6.11-2.09-8.05,1.16-12.02,1.32l-7.81-14.76c4.35-.59,7.34-3.26,9.34-6.71l10.49,20.15Z"/>
  <path class="cls-2" d="M252.22,291.47c.55.91,1.13,2.07,1.57,2.84-.34.86-1.8.92-2.36.62-.77-.42-1.55-1.03-1.83-1.78-.58-1.58.82-2.77,2.62-1.68Z"/>
  <polygon class="cls-2" points="499.92 307.1 500.02 325.59 425.69 325.51 425.7 245.14 446.2 245.06 446.27 307.05 499.92 307.1"/>
  <path class="cls-2" d="M495.34,310.89c1.47,3.17.9,7.03.47,10.94l-65.96.04v-72.42c4.27-.76,8.01-.72,12.37,0v61.49s53.12-.07,53.12-.07Z"/>
  <path class="cls-5" d="M744.44,324.71c-19.39,2.45-37.97,2.91-56.34-.05-8.35-1.35-14.79-7.46-15.1-15.44l-.45-11.94,20.15-.02c-.48,3.28-.44,5.79.57,7.93,2.34,4.93,28.12,4.42,41.73,2.92,4.19-.46,6.52-2.69,6.87-6.19.42-4.22-2.11-7.12-6.88-7.36l-40.81-2.04c-6.52-.33-13.28-2.02-17.15-7.32-4.16-5.7-3.89-12.82-3.78-19.8.15-9.7,6.3-17.65,16.34-19.26,17.79-2.85,36.12-3.08,53.92-.29,9.05,1.41,16.11,7.54,16.4,16.46l.33,10.19-19.68-.15c.33-2.8.34-5.15-.77-7.12-2.85-5.01-27.14-4.01-40.56-2.62-4.47.46-6.35,3.55-6.21,7.07.16,4.01,3.02,5.85,7.43,6.06l42.19,2.07c6.74.33,14.24,3.25,17.14,9.71,3.69,8.2,3.69,18.28.12,26.58-2.42,5.62-8.78,9.76-15.46,10.61Z"/>
  <path class="cls-5" d="M758.3,300.11c.31,10.49-3.99,19.86-16.15,21.17-16.62,1.79-33.69,1.98-50.49.19-5.17-.55-10.16-2.93-12.16-6.23-2.64-4.35-3.02-8.92-2.8-14.02l11.83.11c-.35,5.79,3.04,9.82,8.66,10.5,14.76,1.78,43.81,2.79,47.27-4.16,1.53-3.07,1.66-6.78,1.32-9.91,1.29-4.83,11.09-1.76,12.5,2.35Z"/>
  <path class="cls-5" d="M739.86,249.2c3.78.28,2.43,9.93-1.28,10.19-13.22-2.41-27.12-1.43-41.11-.48l-7.06,2.92c-1.47,3.6-11.56.98-11.57-2.82,2.1-4.76,6.04-8.28,12.43-9.22,16.15-2.37,32.79-2.51,48.58-.59Z"/>
  <path class="cls-5" d="M758.3,300.11c-4.19-.26-7.54-3.18-12.5-2.35-.4-3.65-3.89-6.45-7.85-6.72l-12.9-.88c-3.66-.95-2.39-9.4,1.34-9.74l18.85,1.65c10.34.9,12.82,9.33,13.08,18.05Z"/>
  <path class="cls-5" d="M689.42,272.85c1.16,5.23,7.24,6.76,12.29,6.9,2.51,1.53,2.67,8.05-.09,9.37l-13.24-1.44c-8.69-.95-11.07-8.55-11.01-15.85,2.43-2.84,10.07-2.09,12.05,1.03Z"/>
  <path class="cls-5" d="M738.58,259.39l1.28-10.19c4.47.54,9.35,2.1,12.13,4.98,3.58,3.71,4.37,8.47,4.09,14.39l-11.19.05c-.33-3.63-2.52-8.54-6.32-9.23Z"/>
  <path class="cls-5" d="M726.38,280.41l-1.34,9.74-23.42-1.04c-.9-3.12-1.13-6.2.09-9.37l24.66.66Z"/>
  <path class="cls-5" d="M690.41,261.83c-.92,3.48-1.78,7.45-.99,11.02-4.05.49-7.96,0-12.05-1.03.04-4.54-.44-8.48,1.47-12.81l11.57,2.82Z"/>
  <path class="cls-5" d="M635.43,245.2l20.17-.06-.4,58.38c-.08,12-8.91,20.82-20.68,21.8-17.83,1.49-35.37,1.94-53.05-.57-10.32-1.46-18.25-10.14-18.34-20.62l-.48-58.99,20.28-.04.12,53.56c0,4.41,3,7.57,7.49,8.04,12.33,1.28,24.51,1.28,36.86.02,4.87-.5,7.83-4.37,7.94-9.09l.1-52.44Z"/>
  <path class="cls-5" d="M639.31,249.74c4.24-1.28,7.74-.89,12.32-.15l-.4,52.87c-.08,10.59-7.09,18.16-17.62,19.04-16.46,1.37-32.86,1.62-49.32-.08-9.76-1.01-17.03-8.01-17.12-18.03l-.47-53.9c4.67-.75,8.22-.72,12.4-.07l-.07,49.46c0,6.01,3.62,10.68,9.76,11.5,13.03,1.75,26.25,1.72,39.38.27,6.18-.69,10.79-5.09,10.83-11.36l.3-49.55Z"/>
  <polygon class="cls-5" points="848.99 310.59 800.09 310.34 791.35 325.53 768.37 325.66 814.02 244.82 834.87 244.83 879.86 325.26 856.86 325.48 848.99 310.59"/>
  <path class="cls-5" d="M808.63,306.59c-3.71-2.05-2.52-8.62,1.66-9.21l1.07-2.48,30.25-.25-18.07-33.16-1.37-.44c-2.86,4.4-10.03-.25-9.3-4.81,1.08-1.84,1.56-6.3,4.54-7.07,4.55-1.18,9.52-.28,15.05-.43l40.49,72.42c-5.39,1.17-9.3.75-13.66.5l-8.34-15.02-42.34-.04Z"/>
  <path class="cls-5" d="M802.98,297.75c2.31-3.46,5.66-4.74,7.31-.38-.89,2.97-1.53,5.97-1.66,9.21l-11.47.23-8.63,14.95-13.14-.17,16.16-28.28,2.97-1.3,8.46,5.75Z"/>
  <path class="cls-5" d="M811.81,279.21c.81.52,1.93,1.33,1.76,2.05-1.05,4.45-6.28,14.81-10.58,16.5-4.68,2.42-6.41-2.53-11.43-4.44l12.03-21.23c3.34-1.22,7.11,4.19,8.23,7.12Z"/>
  <path class="cls-5" d="M822.17,261.04l1.46,2.43c-2.94,5.15-5.88,10.31-8.83,15.46l-3,.27c-3.65-.75-6-3.69-8.23-7.12l9.29-15.85c3.22,1.94,5.28,5.07,9.3,4.81Z"/>
  <path class="cls-2" d="M810.29,297.37c-2.24.02-5.22-.71-7.31.38l8.82-18.55,10.37-18.16c.17-.69,1.79-2.55,2.79-2.19l5.73,11.08,15.54,27.14-35.94.3Z"/>
  <polygon class="cls-2" points="329.24 325.39 306.67 325.67 350.01 245.07 371.64 244.87 415.05 325.25 392.85 325.37 360.82 266.86 329.24 325.39"/>
  <path class="cls-2" d="M386.88,281.36c-1.31,4.85-9.16,6.17-12.01,1.36l-2.28-3.74c1.61-.88,1.09-1.82-1.57-2.83l-10.13-17.67-34.29,63.02c-4.89.31-8.57.62-12.91-.36l39.13-72.57,16.64.24,17.44,32.55Z"/>
  <path class="cls-2" d="M385.41,302.83c-2.39-4.89,6.38-11.34,9.32-6.73l13.43,24.89c-4.81.87-8.62.74-12.84.09l-9.91-18.25Z"/>
  <path class="cls-2" d="M374.86,282.72c6.12,2.07,8.05-1.18,12.01-1.36l7.85,14.74c-4.35.61-7.33,3.28-9.32,6.73l-10.55-20.12Z"/>
  <path class="cls-2" d="M372.58,278.97c-.55-.91-1.14-2.07-1.57-2.83.34-.86,1.8-.93,2.36-.62.77.42,1.55,1.02,1.83,1.77.59,1.58-.81,2.77-2.62,1.69Z"/>
  <polygon class="cls-2" points="137.54 325.3 114.97 325.58 158.3 244.98 179.93 244.78 223.34 325.16 201.14 325.29 169.12 266.77 137.54 325.3"/>
  <path class="cls-2" d="M195.17,281.27c-1.31,4.85-9.16,6.17-12.01,1.36l-2.28-3.74c1.61-.88,1.09-1.82-1.57-2.83l-10.13-17.67-34.29,63.02c-4.89.31-8.57.62-12.91-.36l39.13-72.57,16.64.24,17.44,32.55Z"/>
  <path class="cls-2" d="M193.71,302.74c-2.39-4.89,6.38-11.34,9.32-6.73l13.43,24.89c-4.81.87-8.62.74-12.84.09l-9.91-18.25Z"/>
  <path class="cls-2" d="M183.16,282.63c6.12,2.07,8.05-1.18,12.01-1.36l7.85,14.74c-4.35.61-7.33,3.28-9.32,6.73l-10.55-20.12Z"/>
  <path class="cls-2" d="M180.88,278.88c-.55-.91-1.14-2.07-1.57-2.83.34-.86,1.8-.93,2.36-.62.77.42,1.55,1.02,1.83,1.77.59,1.58-.81,2.77-2.62,1.69Z"/>
</svg>