<?xml version="1.0" encoding="UTF-8"?>
<svg id="Layer_1" data-name="Layer 1" xmlns="http://www.w3.org/2000/svg" viewBox="0 0 1700 948.84">
  <defs>
    <style>
      .cls-1 {
        fill: none;
      }

      .cls-2 {
        fill: #2e368f;
      }

      .cls-3 {
        fill: #e9e8ea;
      }

      .cls-4 {
        fill: #ed1c24;
      }

      .cls-5 {
        fill: #fff;
      }

      .cls-6 {
        fill: #df1f26;
      }

      .cls-7 {
        fill: #feffff;
      }
    </style>
  </defs>
  <rect class="cls-1" width="1700" height="948.84"/>
  <path class="cls-3" d="M956.75,383.08c-1.46-3.56-.82-4.91,1.92-4.05l2.54-.62,73.85,114.53,21.06.12,86.89-134.01c1.96-.74,3.53.1,4.92,1.59l.15,131.38c14.8,1.02,29.95,1.33,45.43.93,1.02-60.88,1.2-121.98.55-183.3l-69.22-.03-75.27,117.14c-1.46,2.13-3.44,1.47-5.44.52l-73.93-117.58-71.52-.08c-1.28,59.99-1.19,123.28.02,183.32,15.4.43,30.49.18,45.25-.75v-100.99s2.47-1.49,2.47-1.49c.49-3.54,3.04-3.5,4.06-.13l.14,109.99-59.32-.06-.04-196.51,82.66.08,72.74,115.53,74.34-115.59h80.03s-.08,196.44-.08,196.44l-59.27.08-.7-124.4-80.57,124.47-29.22-.04-74.44-116.48Z"/>
  <path class="cls-7" d="M958.67,379.04l-1.92,4.05-4.23-6.7c-.89.03-1.67.13-2.22.95l.19,12.25-4.06.13c-.96-.12-2.38-.39-2.47-1.08-.26-1.85-.44-19.74-.02-20.69s1.5-1.37,2.47-1.74c.55-2.9,1.44-3.69,2.66-2.37.93-.31,2.08-.67,2.83-.15.61.43,7.44,11.26,7.94,12.58l-1.17,2.78Z"/>
  <path class="cls-3" d="M952.52,376.39l-2.22.95c-.01-.72-.37-1.41-.24-2.31.08-.56.75-.74,1.24-.13l1.21,1.5Z"/>
  <path class="cls-5" d="M958.67,379.04l-9.6-15.21c-1.57,1.39-2.27-2.21-1.84-2.44.23-.12.72,3.99-.82,4.81l.03,23.51v105.75s-50.89-.06-50.89-.06l-.05-188.25,76-.05,75.2,119.59,76.9-119.67,73.21.16-.1,188.24-51.07-.11-.16-135.53-87.62,135.75-24.04.02-75.14-116.52Z"/>
  <path class="cls-3" d="M949.07,363.83l-2.66,2.37.07-5.52c1.84.55,1.87,2,2.59,3.14Z"/>
  <path class="cls-4" d="M1570.42,308.18c.03.24.03.59-.07.77l-1.2,1.56-.08.84c-2.49,3.12-4.52,6.54-6.11,10.25l-.04.85-1.22,1.57-.03.87-5.01,7.72v.57c-2.88,3.42-4.86,6.08-6.17,10.42.11.33.09.96.02,1.29l-1.15,1.38-.06.86-3.56,5.46c-.04.23.01.55-.1.77l-1.19,1.63-.06.83-1.23,1.53c-.2.81-.56,1.56-1.1,2.2l-1.29,1.71-.08.76-1.18,1.64-.06.8-1.4,1.42c-.07.17-.12.43.19.67-4.39,2.69-7.65,5.84-10.67,10.05.77,2.89.59,5.88-.55,8.98.07.31.15.92,0,1.25l-1.11,1.35-.96,2.23-1.26,1.86c-.02.22-.04.53-.16.72-.83.21-1.18.78-1.03,1.62-2.65,4.18-4.12,9.33-7.48,13.24-.57.78-1.04,1.38-1.1,1.33-2.04-1.64-.92-29.75-.09-33.97,5.49-1.06,6.95-3.29,4.4-6.69.84-5.05-.75-9.61-4.76-13.68-1.2-7.05-1.62-28.7.31-35.07,3.15-1,3.98-2.55,2.48-4.67-2.33-1.86-4.17-9.01-1.97-10.7,2.15-1.65,49.26-1.34,54.16-.65,3.51.5,4.55.85,1.97,4.42Z"/>
  <path class="cls-6" d="M1570.42,308.18c.29-1.03-.07-2.51-.88-3-1.2-.72-2.56-.4-4.17-.4l-46.98.2c-2.41.01-3.88,1.25-3.8,3.26.11,2.64,4.65,3.76,4.86,9.74.06,1.81-2.57,2.79-4.49,3.72-2.37,10.33-2.09,21.96-.3,32.48,5.24,3.37,7.23,7.95,5.94,13.98,1.16,1.85,1.76,4.49.84,6.06-1.42,2.42-7.72,1.04-7.79,6.41l-.31,24.69c-.02,1.53.71,2.34,1.69,2.53-.02,1.11.56,3.45-2.57,3.96l-.05-31.3-.18-41.99.06-35.56,61.13-.21c.31,3-1.27,4.4-2.99,5.42Z"/>
  <path class="cls-6" d="M1538.26,366.54l-11.22,19.03-2.21-10.01c5.45-4.52,5.48-9.73,13.43-9.02Z"/>
  <path class="cls-6" d="M1556.65,333.16c-.06,3.91-2.8,8.07-6.16,10.42-.78-2.27-1.02-4.73.27-6.75s3.6-3.1,5.9-3.67Z"/>
  <path class="cls-6" d="M1561.67,324.88c-.12,3.22-2.18,6.13-5.01,7.72l2-5.71c.56-1.61,1.86-2.15,3.01-2.01Z"/>
  <path class="cls-6" d="M1562.97,321.59c.18-3.7,2.76-8.02,6.11-10.25-1.94,3.4-3.09,7.65-6.11,10.25Z"/>
  <path class="cls-6" d="M1545.74,352.57c.35-2.28,1.39-4.55,3.56-5.46-.14,2.05-1.86,4.08-3.56,5.46Z"/>
  <path class="cls-6" d="M1522.51,394.61c-.81-.83-.15-2.08,1.03-1.62l-1.03,1.62Z"/>
  <path class="cls-6" d="M1523.7,392.27c.06-.81.51-1.54,1.26-1.86l-1.26,1.86Z"/>
  <path class="cls-6" d="M1525.92,388.17c.29-.52.67-.98,1.11-1.35-.25.51-.68.97-1.11,1.35Z"/>
  <path class="cls-6" d="M1538.06,365.87c.28-.63.78-1.14,1.4-1.42-.05.67-.75,1.18-1.4,1.42Z"/>
  <path class="cls-6" d="M1539.52,363.65c.05-.72.53-1.39,1.18-1.64-.25.57-.73,1.19-1.18,1.64Z"/>
  <path class="cls-6" d="M1540.78,361.24c.08-.75.6-1.38,1.29-1.71l-1.29,1.71Z"/>
  <path class="cls-6" d="M1561.71,324.01c.03-.73.51-1.41,1.22-1.57-.23.54-.76,1.17-1.22,1.57Z"/>
  <path class="cls-6" d="M1543.17,357.33c.29-.6.71-1.13,1.23-1.53-.25.53-.75,1.12-1.23,1.53Z"/>
  <path class="cls-6" d="M1544.45,354.98c.05-.71.55-1.33,1.19-1.63-.29.61-.72,1.16-1.19,1.63Z"/>
  <path class="cls-6" d="M1549.36,346.25c.04-.59.64-1.07,1.15-1.38-.13.6-.6,1.12-1.15,1.38Z"/>
  <path class="cls-6" d="M1569.16,310.5c.07-.67.59-1.25,1.2-1.56l-1.2,1.56Z"/>
  <polygon class="cls-3" points="1486.26 499.52 1408.92 499.53 1285.21 369.53 1284.75 499.5 1225.77 499.49 1225.79 303.06 1304.7 303.01 1426.87 433.19 1426.99 303 1486.27 303.03 1486.26 499.52"/>
  <polygon class="cls-5" points="1482.11 494.96 1410.84 495.48 1280.84 358.8 1280.76 495.15 1229.96 495.45 1229.91 307.18 1302.64 307.06 1430.85 443.25 1431.19 307.18 1482.04 307.21 1482.11 494.96"/>
  <path class="cls-3" d="M789.59,448.39c9.81-.01,16.16-5.64,16.71-14.67l.61-9.99,59.95.02-.65,32.32c-.36,18.12-12.02,32.52-29.12,38.76-10.76,4.28-22.04,6.62-34.17,6.61h-119.59c-13.85,0-26.83-2.43-39.05-7.93-22.11-9.97-32.6-32.11-32.6-56.22l.02-72.77c0-23.24,10.57-44.72,31.94-54.3,13.21-5.92,27.24-8.51,42.15-8.52l113.43-.11c32.77-.03,62.83,11.16,66.74,45.62l.82,27.94h-60.53c.2-4.43.75-8.57-1.14-12.75-2.06-4.57-7.73-7.41-13.28-7.4l-99.83.21c-9.43.02-16.63,7.63-16.62,16.72l.05,60.36c0,4.79,1.73,8.73,4.28,11.66,3.07,3.54,7.16,4.54,12.43,4.53l97.45-.1Z"/>
  <path class="cls-5" d="M805.42,446.62c4.85-4.93,5.34-11.34,5.25-18.53l51.86-.37c1.07,25.54.85,50.47-23.6,61.75-12.17,5.62-24.94,8.09-38.71,8.1l-115.56.02c-11.86,0-22.81-1.79-33.62-5.64-26.18-9.33-35.48-32.2-35.29-59.58l.51-72.65c.17-24.04,15.34-42.65,38.01-49.15,11.11-3.19,22.03-4.88,33.98-4.89l105.62-.09c13.84-.01,27.05,1.17,39.93,5.67,25.53,8.91,30.44,33.25,28.71,59.85l-52.03-.05c1.09-12.05-6.45-20.07-17.41-20.08l-99.94-.09c-12.21-.01-21.93,8.76-21.94,21.18l-.05,60.2c0,11.92,8.48,20.35,20.38,20.34l96.72-.08c6.14,0,12.79-1.43,17.18-5.9Z"/>
  <path class="cls-2" d="M466.89,462.51l-69.81-73.83-37.29,39.05c-11.64,11.38-22.33,22.59-33.5,34.98l-70.47-74.33-70.24,74.23-46.14-40.21,80.71-82.29,35.44-36.53,18.61,19.05,52.37,53.19,52.23-53.76,17.94-18.66,74.41,76.59,40.88,42.79-45.13,39.74Z"/>
  <polygon class="cls-4" points="397.15 530.9 326.1 604.69 255.6 530.7 185.53 604.61 139.9 564.52 206.72 495.85 255.21 445.81 326.12 518.4 351.09 493.09 397.38 445.77 511.92 564.42 466.77 604.42 397.15 530.9"/>
  <polygon class="cls-5" points="711.99 627.07 688.03 626.85 634.9 572.03 634.33 627.17 614.51 627.12 614.51 546.68 638.27 546.73 691.8 602.27 691.93 546.75 712.06 546.7 711.99 627.07"/>
  <path class="cls-5" d="M708.17,623.29l-18.1-.03-59.21-61.81-.36,61.37c-4.23.98-7.72,1-12.08,0v-72.06s18.19-.21,18.19-.21l59.09,61.74.44-61.57,12.02.16.02,72.42Z"/>
  <g>
    <polygon class="cls-5" points="907.38 546.76 929.95 546.55 886.38 627.02 864.75 627.16 821.57 546.65 843.77 546.59 875.63 605.2 907.38 546.76"/>
    <path class="cls-5" d="M849.62,590.63c1.32-4.84,9.18-6.14,12.02-1.32l2.27,3.75c-1.62.87-1.09,1.82,1.57,2.84l10.08,17.7,34.48-62.92c4.89-.3,8.58-.6,12.91.4l-39.34,72.46-16.64-.29-17.34-32.6Z"/>
    <path class="cls-5" d="M851.14,569.16c2.38,4.89-6.41,11.33-9.34,6.71l-13.36-24.93c4.81-.85,8.62-.71,12.84-.06l9.86,18.28Z"/>
    <path class="cls-5" d="M861.64,589.3c-6.11-2.09-8.05,1.16-12.02,1.32l-7.81-14.76c4.35-.59,7.34-3.26,9.34-6.71l10.49,20.15Z"/>
    <path class="cls-5" d="M863.91,593.05c.55.91,1.13,2.07,1.57,2.84-.34.86-1.8.92-2.36.62-.77-.42-1.55-1.03-1.83-1.78-.58-1.58.82-2.77,2.62-1.68Z"/>
  </g>
  <polygon class="cls-5" points="1111.61 608.69 1111.71 627.17 1037.37 627.1 1037.38 546.73 1057.89 546.64 1057.95 608.63 1111.61 608.69"/>
  <path class="cls-5" d="M1107.03,612.48c1.47,3.17.9,7.03.47,10.94l-65.96.04v-72.42c4.27-.76,8.01-.72,12.37,0v61.49s53.12-.07,53.12-.07Z"/>
  <path class="cls-5" d="M1356.12,626.3c-19.39,2.45-37.97,2.91-56.34-.05-8.35-1.35-14.79-7.46-15.1-15.44l-.45-11.94,20.15-.02c-.48,3.28-.44,5.79.57,7.93,2.34,4.93,28.12,4.42,41.73,2.92,4.19-.46,6.52-2.69,6.87-6.19.42-4.22-2.11-7.12-6.88-7.36l-40.81-2.04c-6.52-.33-13.28-2.02-17.15-7.32-4.16-5.7-3.89-12.82-3.78-19.8.15-9.7,6.3-17.65,16.34-19.26,17.79-2.85,36.12-3.08,53.92-.29,9.05,1.41,16.11,7.54,16.4,16.46l.33,10.19-19.68-.15c.33-2.8.34-5.15-.77-7.12-2.85-5.01-27.14-4.01-40.56-2.62-4.47.46-6.35,3.55-6.21,7.07.16,4.01,3.02,5.85,7.43,6.06l42.19,2.07c6.74.33,14.24,3.25,17.14,9.71,3.69,8.2,3.69,18.28.12,26.58-2.42,5.62-8.78,9.76-15.46,10.61Z"/>
  <path class="cls-5" d="M1369.99,601.7c.31,10.49-3.99,19.86-16.15,21.17-16.62,1.79-33.69,1.98-50.49.19-5.17-.55-10.16-2.93-12.16-6.23-2.64-4.35-3.02-8.92-2.8-14.02l11.83.11c-.35,5.79,3.04,9.82,8.66,10.5,14.76,1.78,43.81,2.79,47.27-4.16,1.53-3.07,1.66-6.78,1.32-9.91,1.29-4.83,11.09-1.76,12.5,2.35Z"/>
  <path class="cls-5" d="M1351.54,550.79c3.78.28,2.43,9.93-1.28,10.19-13.22-2.41-27.12-1.43-41.11-.48l-7.06,2.92c-1.47,3.6-11.56.98-11.57-2.82,2.1-4.76,6.04-8.28,12.43-9.22,16.15-2.37,32.79-2.51,48.58-.59Z"/>
  <path class="cls-5" d="M1369.99,601.7c-4.19-.26-7.54-3.18-12.5-2.35-.4-3.65-3.89-6.45-7.85-6.72l-12.9-.88c-3.66-.95-2.39-9.4,1.34-9.74l18.85,1.65c10.34.9,12.82,9.33,13.08,18.05Z"/>
  <path class="cls-5" d="M1301.11,574.44c1.16,5.23,7.24,6.76,12.29,6.9,2.51,1.53,2.67,8.05-.09,9.37l-13.24-1.44c-8.69-.95-11.07-8.55-11.01-15.85,2.43-2.84,10.07-2.09,12.05,1.03Z"/>
  <path class="cls-5" d="M1350.26,560.98l1.28-10.19c4.47.54,9.35,2.1,12.13,4.98,3.58,3.71,4.37,8.47,4.09,14.39l-11.19.05c-.33-3.63-2.52-8.54-6.32-9.23Z"/>
  <path class="cls-5" d="M1338.07,582l-1.34,9.74-23.42-1.04c-.9-3.12-1.13-6.2.09-9.37l24.66.66Z"/>
  <path class="cls-5" d="M1302.1,563.42c-.92,3.48-1.78,7.45-.99,11.02-4.05.49-7.96,0-12.05-1.03.04-4.54-.44-8.48,1.47-12.81l11.57,2.82Z"/>
  <path class="cls-3" d="M1247.11,546.78l20.17-.06-.4,58.38c-.08,12-8.91,20.82-20.68,21.8-17.83,1.49-35.37,1.94-53.05-.57-10.32-1.46-18.25-10.14-18.34-20.62l-.48-58.99,20.28-.04.12,53.56c0,4.41,3,7.57,7.49,8.04,12.33,1.28,24.51,1.28,36.86.02,4.87-.5,7.83-4.37,7.94-9.09l.1-52.44Z"/>
  <path class="cls-4" d="M1251,551.33c4.24-1.28,7.74-.89,12.32-.15l-.4,52.87c-.08,10.59-7.09,18.16-17.62,19.04-16.46,1.37-32.86,1.62-49.32-.08-9.76-1.01-17.03-8.01-17.12-18.03l-.47-53.9c4.67-.75,8.22-.72,12.4-.07l-.07,49.46c0,6.01,3.62,10.68,9.76,11.5,13.03,1.75,26.25,1.72,39.38.27,6.18-.69,10.79-5.09,10.83-11.36l.3-49.55Z"/>
  <g>
    <polygon class="cls-5" points="750.71 621.26 728.14 621.48 771.71 541 793.34 540.86 836.52 621.37 814.31 621.43 782.46 562.83 750.71 621.26"/>
    <path class="cls-5" d="M808.47,577.4c-1.32,4.84-9.18,6.14-12.02,1.32l-2.27-3.75c1.62-.87,1.09-1.82-1.57-2.84l-10.08-17.7-34.48,62.92c-4.89.3-8.58.6-12.91-.4l39.34-72.46,16.64.29,17.34,32.6Z"/>
    <path class="cls-5" d="M806.94,598.87c-2.38-4.89,6.41-11.33,9.34-6.71l13.36,24.93c-4.81.85-8.62.71-12.84.06l-9.86-18.28Z"/>
    <path class="cls-5" d="M796.45,578.72c6.11,2.09,8.05-1.16,12.02-1.32l7.81,14.76c-4.35.59-7.34,3.26-9.34,6.71l-10.49-20.15Z"/>
    <path class="cls-5" d="M794.18,574.97c-.55-.91-1.13-2.07-1.57-2.84.34-.86,1.8-.92,2.36-.62.77.42,1.55,1.03,1.83,1.78.58,1.58-.82,2.77-2.62,1.68Z"/>
  </g>
  <g>
    <polygon class="cls-5" points="936.29 626.63 913.71 626.85 957.28 546.37 978.91 546.23 1022.09 626.74 999.89 626.8 968.03 568.19 936.29 626.63"/>
    <path class="cls-5" d="M994.04,582.77c-1.32,4.84-9.18,6.14-12.02,1.32l-2.27-3.75c1.62-.87,1.09-1.82-1.57-2.84l-10.08-17.7-34.48,62.92c-4.89.3-8.58.6-12.91-.4l39.34-72.46,16.64.29,17.34,32.6Z"/>
    <path class="cls-5" d="M992.52,604.24c-2.38-4.89,6.41-11.33,9.34-6.71l13.36,24.93c-4.81.85-8.62.71-12.84.06l-9.86-18.28Z"/>
    <path class="cls-5" d="M982.03,584.09c6.11,2.09,8.05-1.16,12.02-1.32l7.81,14.76c-4.35.59-7.34,3.26-9.34,6.71l-10.49-20.15Z"/>
    <path class="cls-5" d="M979.76,580.34c-.55-.91-1.13-2.07-1.57-2.84.34-.86,1.8-.92,2.36-.62.77.42,1.55,1.03,1.83,1.78.58,1.58-.82,2.77-2.62,1.68Z"/>
  </g>
  <g>
    <polygon class="cls-2" points="1396.82 622.86 1374.24 623.08 1417.81 542.6 1439.44 542.46 1482.62 622.97 1460.42 623.03 1428.56 564.42 1396.82 622.86"/>
    <path class="cls-2" d="M1454.58,578.99c-1.32,4.84-9.18,6.14-12.02,1.32l-2.27-3.75c1.62-.87,1.09-1.82-1.57-2.84l-10.08-17.7-34.48,62.92c-4.89.3-8.58.6-12.91-.4l39.34-72.46,16.64.29,17.34,32.6Z"/>
    <path class="cls-2" d="M1453.05,600.46c-2.38-4.89,6.41-11.33,9.34-6.71l13.36,24.93c-4.81.85-8.62.71-12.84.06l-9.86-18.28Z"/>
    <path class="cls-2" d="M1442.56,580.32c6.11,2.09,8.05-1.16,12.02-1.32l7.81,14.76c-4.35.59-7.34,3.26-9.34,6.71l-10.49-20.15Z"/>
    <path class="cls-2" d="M1440.29,576.57c-.55-.91-1.13-2.07-1.57-2.84.34-.86,1.8-.92,2.36-.62.77.42,1.55,1.03,1.83,1.78.58,1.58-.82,2.77-2.62,1.68Z"/>
  </g>
</svg>