<?xml version="1.0" encoding="UTF-8"?>
<svg id="Layer_1" xmlns="http://www.w3.org/2000/svg" version="1.1" viewBox="0 0 217.89 196.46">
  <!-- Generator: Adobe Illustrator 30.5.1, SVG Export Plug-In . SVG Version: 2.1.4 Build 3)  -->
  <defs>
    <style>
      .st0 {
        fill: #afb3b2;
      }

      .st1 {
        fill: #f9edef;
      }

      .st2 {
        fill: #f1f1f3;
      }

      .st3 {
        fill: #b5b8b7;
      }

      .st4 {
        fill: #aeb0b0;
      }

      .st5 {
        fill: #b5b5b5;
      }

      .st6 {
        fill: #b6b8b7;
      }

      .st7 {
        fill: #f6f8fa;
      }

      .st8 {
        fill: #b3b3b5;
      }

      .st9 {
        fill: #0b233b;
      }

      .st10 {
        fill: #fdfeff;
      }

      .st11 {
        fill: #fff;
      }

      .st12 {
        fill: #0c2035;
      }

      .st13 {
        fill: #c72129;
      }

      .st14 {
        fill: #f3f4f4;
      }

      .st15 {
        fill: #b0b3b1;
      }

      .st16 {
        fill: #b3b5b6;
      }

      .st17 {
        fill: #cd2028;
      }

      .st18 {
        fill: #b2b4b5;
      }

      .st19 {
        fill: #b0b1b2;
      }

      .st20 {
        fill: #f2f3f4;
      }
    </style>
  </defs>
  <path class="st3" d="M9.89,11.46l-.41,9.94h-1.41s-.56-9.79-.56-9.79c-2.27-.7-4.52-.45-6.86-.41-1.29-3.66,4.3-.99,6.47-2.5,1.46-1.01-.09-6,1.18-6.71.76-.42,1.97-.17,2.32.47-1.17,1.53-1.62,4.76-.39,5.98,1.48,1.46,4.68.64,6.25.73l.42,1.45c-1.81.95-3.78.11-7,.82Z"/>
  <path class="st16" d="M210.39,11.72c-.31,3.48.64,7.02-1.32,10.46-1.85-3.72-.7-6.91-1.07-10.54-2.51-.94-4.78.07-6.75-1.14,0-.17.23-.69.56-.98l5.45-.67c1.96-.24,1.12-5.17-.07-6.47.82-.74,1.99-.61,2.39-.39,1.39.75-.04,5.69,1.23,6.75.71.59,2.8.45,3.99.45h2.05c.47,0,1.32,1.28.18,1.86l-6.64.66Z"/>
  <path class="st6" d="M8.31,194.36c-1-1.87-.55-4.46-.37-7.07l-7.94-.87v-1.36s7.68-.33,7.68-.33l.38-10.65h1.41s.41,9.68.41,9.68c.05,1.11,1.61,1.75,2.77,2.44-2.04.38-2.96,1.29-3,2.95-.05,2.08.48,3.89,2.14,4.94-.76.81-2.52,1.12-3.48.27Z"/>
  <path class="st15" d="M210.68,187l-.62,7.4c-1.45.22-2.33.36-3.97-.26,1.69-.94,2.33-2.2,2.21-3.98-.1-1.47-.6-2.85-1.93-4.23.85-.84,1.72-1.83,1.76-3.05l.29-8.79h1.41s.81,10.81.81,10.81l7.26.23v1.31s-7.21.57-7.21.57Z"/>
  <rect class="st5" x="107.97" y="186.73" width="1.95" height="9.73"/>
  <rect class="st0" x=".02" y="97.26" width="9.73" height="1.95"/>
  <rect class="st18" x="208.15" y="97.26" width="8.75" height="1.95"/>
  <rect class="st4" x="107.97" width="1.95" height="8.75"/>
  <path class="st12" d="M198.91,177.78c1.46.01,2.26,1.18,2.37,1.73.17.8-.41,2.21-2.17,2.21l-180.34-.03c-1.42,0-2.01-.82-2.19-1.39-.34-1.07.25-2.52,1.9-2.53l11.77-.06.38-10.87,5.72-.86.09-117.98-19.57-.64-.31-15.36c8.77-7.11,17.48-13.45,27.39-19.86l146.41,19.11,10.38,12.22c.6.71.88,1.98.67,2.64-.18.55-.99,1.42-2.1,1.43l-18.22.15-.06,118.39c1.72,0,5.13-.11,5.54,1.16,1.15,3.58.31,6.98.46,10.43l11.9.11Z"/>
  <path class="st11" d="M101.71,47.64l1.88,1.12.11,11.65c3.87.19,5.6,2.93,5.19,8.23,11.62,4.48,1.36,16.66-5.13,8.25l-1.58,1.65,1.01,1.63c-4.41,5.6-9.06,11.22-13.96,16.86l-3.18,1.26c-.21,2.75-4.64,2.43-6.29.78-.67,2.49-.82,5.11-.44,7.84l-12.07,11.15s-1.23-.15-3.69-.45c1.21.1,1.91.77,2.23,1.88,1,13.79,4.58,26.36,10.75,37.71,6.99,4.45,24.62,13.59,32.4,13.84,4.29.14,22.18-7.53,26.94-9.89,4.05-2.01,6.4-4.28,8.53-8.27,1.68-3.13,8.34-29.83,8.48-33.54-.71-.35-1.03-1.16-.96-2.45-3.5,2.78-11.75-6.52-9.31-9.9,4.59-1.48,4.28-8.53-.8-5.45-1.77.62-3.06-.44-3.86-3.18-.16,2.92-4.89,2.62-5.38-.12l-3.63-1.48c-1.61-1.29-13.6-13.98-13.95-14.94-.52-1.38-.33-1.9.43-3.4-.71-1.9-1.22-4-1.51-6.3-5.16-4.28-9.28-9.9.05-11.99l.34-11.23,1.95-1.29h42.82s8.12,118.56,8.12,118.56c-2.58.1-4.85-.28-7.21.65l-.45,10.95-101.68-.12-.56-11.03-6.77-.6,7.88-118.41,43.27.02Z"/>
  <path class="st11" d="M195.3,43.77l-174.71.04c-.81-3.07-.87-5.75,0-9.02l167.02-.05c3.32,2.43,5.56,4.95,7.69,9.04Z"/>
  <path class="st11" d="M46.6,165.63c-1.94,1.13-4.45.97-6.15-.25l-.03-117.56,14.12-.07-7.94,117.88Z"/>
  <path class="st11" d="M177.08,165.6c-2.01,1.09-3.78.86-6.09.31l-7.71-118.15h13.8s0,117.84,0,117.84Z"/>
  <polygon class="st11" points="155.49 30.79 53.78 31.11 51.29 17.08 155.49 30.79"/>
  <path class="st13" d="M105.5,47.65l1.92,1.1c-1.05,6.3-.12,8.95,2.78,7.95l.26-7.79,1.99-1.26,3.83-.03-.4,14.5c-2.09.64-3.72.58-5.17.56-.9,3.52.51,4.62,2.66,5.97,3.21,2.01,4.1,7.23,2.07,9.77.56,3.36-.31,4.46-2.62,3.3-.32.83-.64.8-.95-.06-1.86.77-4.01.78-5.87,0-.22.86-.54.87-.96.06-2.56.85-3.31-.57-2.86-3.19-.22-1.09-.91-2.57-.34-3.91,2.03-4.77,3.58,3.94,7.59,3.34,2.3-.34,3.22-2.31,2.66-4.48-.43-1.69-1.77-2.11-3.88-3.01-2.04-.87-1.82-4.86-1.2-7.22l-5.46-1.4.16-14.23h3.8Z"/>
  <rect class="st7" x="163.61" y="170.12" width="19.58" height="7.65" transform="translate(-1.68 1.7) rotate(-.56)"/>
  <rect class="st14" x="34.33" y="170.18" width="19.59" height="7.5"/>
  <polygon class="st20" points="38.35 30.72 24.23 30.87 39.93 19.72 38.35 30.72"/>
  <path class="st2" d="M49.83,30.97l-7.86-.03,3.87-15.35c2.94,5.36,2.57,10.22,3.99,15.38Z"/>
  <path class="st1" d="M112.46,47.66l-.36,10.71c-2.59.6-4.61.54-6.82-.04l.23-10.67h6.95Z"/>
  <path class="st17" d="M63.57,117.61c5.13-1.27,6.54-.61,4.23,1.98l5.56,26.86c1.2,5.82,4.76,10.84,10.3,13.01l25.17,9.88,26.22-10.04c5.35-2.05,8.06-7.67,9.31-13.03l7.59-29.37c.98.46,2.94.64,2.51,2.59l-6.31,28.7c-1.43,6.5-5.65,12.57-12.21,15.04-8.6,3.24-17.81,8.36-27.02,9.57-10.14-1.69-19.93-7.13-29.45-11-10.97-4.46-13.49-30.21-15.9-44.18Z"/>
  <path class="st19" d="M105.05,81.73c.48.59,1.14,1.54.81,1.96-3.11,3.99-9.5,10.38-13.23,13.96l-1.92.59-4.66.05c4.62-7.34,16.72-16.85,16.13-19.75,1.2.78,2.21,1.8,2.86,3.19Z"/>
  <path class="st19" d="M132.6,98.25h-4.61c-5.21-2.78-11.82-9.36-15.61-14.18l.45-2.34,2.62-3.3c.04,2.04,1.31,3.21,2.74,4.73l14.41,15.09Z"/>
  <path class="st8" d="M81.84,107.95c-1.63-.13-2.59.89-3.85,2.11l-10.2,9.53c-.32-1.56-2.28-2.27-4.23-1.98,1.91-.7,3.45-.87,4.43-1.85l10.88-10.84c-.1-1.92-.69-4.61.88-5.85l-.18,4.04c-.11,2.29.55,4.06,2.26,4.84Z"/>
  <path class="st11" d="M111.88,81.67l.95.06,12.41,12.86c1.16,1.2,2.16,2.19,2.76,3.66h-37.28c-.22-1.47.78-2.45,1.94-3.66l12.4-12.86.96-.06c1.9.76,3.97.76,5.87,0Z"/>
  <path class="st19" d="M111.88,81.67c-1.35,1.53-4.52,1.53-5.87,0h5.87Z"/>
  <path class="st9" d="M86.05,98.29c2.51-2.41,4.07-2.43,4.66-.05.16-1.13,1.44-1.73,2.49-1.94,10.49,0,20.97,0,31.46,0l3.33,1.95c.16-2.13,1.7-2.13,4.61,0l5.38.12c5.54,4.25,2.44,10.82-3.77,12.26-.24,2.33-.14,4.59.3,6.8,6.13,1.13,10.41,3.65,12.85,7.54.78,2.96-6.55,27.12-9.03,29.74-2.42,2.56-25.92,11.99-29.38,11.97-2,0-23.48-8.06-25.78-9.39-1.49-.86-2.69-1.79-3.83-3.09-3.14-3.57-9.94-27.41-8.77-30.72,3.42-2.92,7.59-4.79,12.5-5.6,1.87-1.57-.02-8.31-1.24-9.93-2.97,1.04-3.85-1.29-2.62-7l.53-1.88c1.64-1.29,4.41-.76,6.29-.78Z"/>
  <path class="st10" d="M151.94,116.89c.97.27,1.12.84,1.1,1.74-.14,4.55-6.04,27.26-7.92,31.87-1.36,3.33-2.83,6.1-5.66,8.44-2.29,1.9-27.69,11.98-30.55,12.11-2.69.13-28.41-10.67-30.84-12.69-6.72-5.6-10.66-27.78-11.9-37.03l1.62-1.76c-.28-.4-.51-.81-.56-1.25-.11-.83,11.31-11.65,12.15-11.61l2.45,1.22c1.09.5,2.33.76,2.95,1.45,1.49,1.68,1.2,9.47-.96,10.24-4,1.43-7.95,1.79-11.65,4.46,2.76,12.21,3.8,28.89,13.55,32.38l23.19,8.31,22.59-7.95c3.99-1.41,7.24-4.51,8.23-8.37l5.64-22.03c1.19-4.65-6.89-4.53-12.21-7.71-1.65-2.05-.95-6.72-.44-9.17l5.2-2.91c1.51-2.4.79-5.94.06-8.3,2.72,3.45,6.58-.81,8.31-.12.1.04,2.29,5.46,1.01,7.61-.6,1-2.2,1.65-4.19,3,3.01,3.17,5.14,6.32,8.83,8.05Z"/>
  <path class="st11" d="M136.36,146.53c-1.42,3.56-3.93,5.84-7.13,7.03l-18.32,6.79.28-44.35,30.14,10.07-4.97,20.47Z"/>
  <path class="st11" d="M87.58,153.07c-3.41-1.29-5.68-4.39-6.43-7.58l-4.53-19.28,30.1-10.01.28,44.2-19.43-7.33Z"/>
  <path class="st11" d="M128.38,117.54l-19.43-5.53-19.61,5.61v-10.46c-1.94-1.63-4.69-1.61-6.27-4.82l51.97-.05c-1.63,3.27-4.44,3.2-6.42,4.83l-.23,10.43Z"/>
</svg>