<?xml version="1.0" encoding="UTF-8"?>
<svg id="Layer_1" xmlns="http://www.w3.org/2000/svg" version="1.1" viewBox="0 0 68.13 68.19">
  <!-- Generator: Adobe Illustrator 30.5.1, SVG Export Plug-In . SVG Version: 2.1.4 Build 3)  -->
  <defs>
    <style>
      .st0 {
        fill: #d1d3d8;
      }

      .st1 {
        fill: #e0e1e4;
      }

      .st2 {
        fill: #122f4a;
      }

      .st3 {
        fill: #18344f;
      }
    </style>
  </defs>
  <path class="st2" d="M47.29,68.12l-.34-9.39-11.89-.02-.45,9.42h-1.09s-.21-9.39-.21-9.39l-11.94-.04-.54,9.43h-1.06s-.29-9.51-.29-9.51c-2.87.19-6.43.76-8.32-1.59-1.65-2.06-1.24-5.02-1.05-7.88L.03,48.51c.06-.65.78-1.41,1.35-1.4l8.43.2c.43-4.04.45-7.99-.03-12.08l-9.31-.13c-.52,0-.51-1.33,0-1.34l9.3-.15c.49-4.06.45-8.01.03-11.92L0,21.55v-1.07s9.85-.56,9.85-.56l.14-5.46c.07-2.83,2.4-4.64,5.2-4.63l4.34.03L19.75,0h1.09s.49,9.75.49,9.75c4.07.44,7.8.46,11.99.05L33.51,0h1.08s.39,9.61.39,9.61c3.62.69,7.28.5,11.67.18L47.32,0h1.04s.54,9.94.54,9.94c2.69-.07,6.02-.73,7.99,1.3s1.52,5.44,1.22,8.44l10.01.78v1.08s-9.71.11-9.71.11c-.49,3.98-.52,7.87.03,11.96l9.21.2c.6.01.43,1.43-.46,1.44l-8.75.1-.16,11.82,8.46-.07c.58,0,1.29.73,1.36,1.4l-9.92.54c.24,3,.82,6.71-1.79,8.76-1.85,1.45-4.77.94-7.45.73l-.38,9.23c-.36.5-.95.46-1.27.35Z"/>
  <path class="st1" d="M53.78,57.01l-37.85.12c-2.14,0-4.29-1.09-4.29-3.55l-.02-39.03c0-1.57,1.32-2.97,2.92-2.97h39.06c1.52,0,3.08,1.33,3.08,2.96l.06,39.08c0,1.62-.98,3.38-2.96,3.38Z"/>
  <path class="st3" d="M46.55,49.79l-24.07.06c-1.88,0-3.57-1.52-3.57-3.49v-24.48c.35-1.88,1.59-3.14,3.54-3.14h23.24c1.82.01,3.43,1.23,3.44,3.15l.07,24.46c0,1.5-1.08,2.84-2.66,3.44Z"/>
  <rect class="st0" x="20.3" y="20.18" width="27.53" height="28.38"/>
</svg>