<?xml version="1.0" encoding="UTF-8"?>
<svg id="Layer_1" xmlns="http://www.w3.org/2000/svg" version="1.1" viewBox="0 0 203.32 189.09">
  <!-- Generator: Adobe Illustrator 30.5.1, SVG Export Plug-In . SVG Version: 2.1.4 Build 3)  -->
  <defs>
    <style>
      .st0 {
        fill: #acadae;
      }

      .st1 {
        fill: #c1c0c0;
      }

      .st2 {
        fill: #122b42;
      }

      .st3 {
        fill: #c7c7c6;
      }

      .st4 {
        fill: #bfbfc0;
      }

      .st5 {
        fill: #b7b9b8;
      }

      .st6 {
        fill: #c7c5c5;
      }

      .st7 {
        fill: #b5b8b7;
      }

      .st8 {
        fill: #d04e51;
      }

      .st9 {
        fill: #abacad;
      }

      .st10 {
        fill: #c1c3c3;
      }

      .st11 {
        fill: #c2c3c3;
      }

      .st12 {
        fill: #c2c2c1;
      }

      .st13 {
        fill: #9c9fa4;
      }

      .st14 {
        fill: #c3c3c3;
      }

      .st15 {
        fill: #0b233b;
      }

      .st16 {
        fill: #08253e;
      }

      .st17 {
        fill: #cacac9;
      }

      .st18 {
        fill: #c1c1bf;
      }

      .st19 {
        fill: #b9b9ba;
      }

      .st20 {
        fill: #09253c;
      }

      .st21 {
        fill: #fff;
      }

      .st22 {
        fill: #c4c4c3;
      }

      .st23 {
        fill: #b8b8b8;
      }

      .st24 {
        fill: #b3b5b3;
      }

      .st25 {
        fill: #b5b5b6;
      }

      .st26 {
        fill: #aeb0b1;
      }

      .st27 {
        fill: #f5f7f9;
      }

      .st28 {
        fill: #bdbebe;
      }

      .st29 {
        fill: #acadaf;
      }

      .st30 {
        fill: #c2c3c2;
      }

      .st31 {
        fill: #c4c5c4;
      }

      .st32 {
        fill: #b9b9b9;
      }

      .st33 {
        fill: #c2c2c2;
      }

      .st34 {
        fill: #c6c6c5;
      }

      .st35 {
        fill: #c4c4c5;
      }

      .st36 {
        fill: #bfbebe;
      }

      .st37 {
        fill: #c72128;
      }

      .st38 {
        fill: #bababb;
      }

      .st39 {
        fill: #afb0b2;
      }

      .st40 {
        fill: #c94749;
      }

      .st41 {
        fill: #bbbcbb;
      }

      .st42 {
        fill: #c1c2c3;
      }

      .st43 {
        fill: #c8c9ca;
      }
    </style>
  </defs>
  <rect class="st11" x="14.48" y="153.17" width="6.19" height="2.19" transform="translate(-1.3 .15) rotate(-.48)"/>
  <rect class="st4" x="154.97" y="180.28" width="5.27" height="2.47" transform="translate(-24.53 338.41) rotate(-89.77)"/>
  <rect class="st7" x="182.57" y="16.63" width="5.84" height="1.95"/>
  <path class="st37" d="M134.86,78.01c1.22-2.96,3.27-1.46,3.78,1.34l21.3,7.38c.15,4.37-1.19,7.98-1.86,11.6-2.32,2.37-3.28.82-3.09-2.07-1.72-.77-2.12-2.48-1.2-5.14-16.03-5.79-32.13-10.89-48.29-15.28l.02,29.27-1.94,1.42c2.88-.24,2.66,2.97-.03,3.52.46-.05.9-.06,1.3.07,1.71.57.96,32.16.67,35.85.58,2.9-.07,4.84-1.94,5.81,1.47,1.62,2.29,2.7-.17,3.89l-.25,9.09c-.03,1.16-2.63,1.31-2.68.17l-.47-9.27c-2.81-.48-2.72-3.21-.01-3.92l-1.95-1.75c-.02-12.97-.04-25.94-.06-38.91l1.94-1.15c-2.79-.5-2.7-2.62-.04-3.42l-1.95-1.14-.25-30.15-47.88,15.49c.94,3.28.55,5.48-1.17,6.59-.2,2.76-1.21,2.68-3.32.94-.56-3.54-2.03-7.21-1.62-11.4l21.37-7.55c.4-2.86,1.96-4.01,3.79-1.37,1.49-2.15,4.07-3.45,7.74-3.92,24.64-9.04,25.89-8.98,50.5.09,3.67.47,6.26,1.77,7.76,3.92Z"/>
  <path class="st15" d="M158.09,98.33l-1.02,5.58c-.43,1.84.19,2.41.96,2.65,1.17.36,19.56.43,20.51.03.68-2.12,2.67-2.09,3.27.08,7.13-.33,14.17-.17,21.14.49.46.56.53,1.82.1,2.33-.4.47-1,.58-1.98.58l-45.45.05-3.45,16.15c-2,9.33-8.45,15.62-17.33,18.73l-31.41,10.67c.03-1.12-1.31-2.64.17-3.89l.69-2.3,31.13-10.87c4.59-1.8,8.06-5.04,9.88-9.61l4.12-18.05,2.2-.93c-2.78-.71-1.92-3.55.87-3.66-2.83-1.3-.53-10,2.52-10.1,1.02.94,2,1.62,3.09,2.07Z"/>
  <path class="st16" d="M48.64,97.28c3.06.13,4.34,4.98,1.59,6.78,2.23,3.55,3.34,5.33,3.34,5.33l-1.62,1.5,2.08.43c.71,9.7,3.62,17.83,8.72,24.38,11.86,5.21,24.03,9.78,36.53,13.71l.7,2.31v3.92c-3.82-.33-7.2-2.18-11.08-3.53l-20.83-7.28c-8.89-3.1-14.7-9.9-16.94-19.21l-3.02-12.33c-1.46.34-1.56-.06-.28-1.2l-.43-1.76-45.61-.35c-.91,0-1.7-.84-1.78-1.38-.06-.43.33-1.05.66-1.45,6.89-.66,13.88-.87,20.97-.62.64-2.19,2.69-2.15,3.25.09l21.79.2-1.35-8.59c1.03-.46,2.06-.75,3.32-.94Z"/>
  <path class="st28" d="M147.55,178.75c.39-.49.33-3.78-.78-3.78l-91.71.12c2.09,8.86-3.29-1.22-10.22,1.06-.55-2.84-.61-4.74.36-7.4,1.74.99,1.87,1.97,2.42,3.56l7.62-3.85c-.33.73-.06,4.16.85,4.16l90.66.03c1.22,0,1.39-3.34.86-4.15l8.28,3.8c.46-.76.76-1.86.75-2.24-.02-.88,1.26-1.33,1.83-.36.65,1.12.66,5.09-.01,6.08-.5.73-2.31-.13-3.1-.36-2.59.71-3.85,3.07-7.81,3.35Z"/>
  <path class="st9" d="M202.93,107.16l-46.36-.12c-.9-.74.37-2.43.49-3.13-.19.61.15,2.19,1.16,2.19l20.48-.02-3.96-8.47c1.25.34,3.93-.12,3.93-1.08V28.6c-1.81-.14-2.92-.09-4.06-.94,1.91-3.34,3.43-5.59,4.16-9.19-2.42.2-4.37.72-6.4-.94,3-2.59,6.87-1.14,8.33,1.93l3.99,8.43-3.93.74-.15,68.5,4.33.77-3.91,8.33,19.16-.22c1.33-.02,2.42.16,2.73,1.14Z"/>
  <path class="st0" d="M179.99,153.81c-1.39,2.48-5.71,2.32-7.29.32,2.12-.88,3.83-.5,6.15-.54l-4.42-8.94c1.42-.58,2.46-.16,4.17.05l.04-18.29c-.39-.82-2.53-1-3.92-.87l4.07-8.66-8.81-.1c-1.2-.01-1.69-.71-1.71-1.59-.02-.69.26-1.52,1.63-1.53l20.48-.07c1.42,0,2.05.72,2.03,1.75-.02.92-.59,1.6-2.02,1.6l-9.77.02,4.29,8.46-4.22.43.11,19c1.67-.33,2.79-.69,4.31-.18l-5.12,9.14Z"/>
  <path class="st26" d="M46.68,106.82l-46,.33c.23-.61.92-1.08,1.9-1.08h19.62s-3.82-8.59-3.82-8.59c1.14.37,3.69,0,3.7-.85v-8.82s-3.82-.46-3.82-.46l5.11-10.23c.94-1.88,5.53-1.42,6.41.39-1.25,1.21-2.87,1.06-5.29.97.92,3.59,2.09,5.27,3.82,8.51l-3.92.83c-.15,3.56-.41,6.51.17,10.14l4.21-.54-4.13,8.84,22.05.57Z"/>
  <path class="st13" d="M34.26,116.8l-21.79.13c-.98,0-1.82-1.08-1.84-1.61s.75-1.78,1.76-1.78l21.39-.03c.96,0,1.58.55,1.84.9.36.48.27,2.38-1.36,2.39Z"/>
  <path class="st29" d="M28.59,123.18l-10.13-.05c-1.09,0-1.23-2.89-.06-3.11,5.03-.96,11.14-.78,11.54,1.16.13.64-.28,2-1.35,2Z"/>
  <path class="st40" d="M103.36,10.49c.02,1.05-2.51,1.4-2.71.55-.78-3.34-.52-7.01-.13-10.32.21-.97,2.61-.95,2.63,0l.21,9.78Z"/>
  <rect class="st8" x="97.29" y="183" width="9.03" height="3.14" transform="translate(-82.91 286.11) rotate(-89.92)"/>
  <path class="st38" d="M160.04,154.48c.18,1.14-1.55,2.39-2.27,2.26-.92-.18-1.99-.86-3.5-1.71.44-1.73,2.05-3.11,3.42-5.06,1.05,1.04,2.02,2.31,2.36,4.51Z"/>
  <path class="st38" d="M48.24,154.42c.13,1.22-1.6,2.2-2.32,2.24-.89.05-3.11-.96-3.17-1.89.47-1.97,2.07-3.5,3.25-4.77,1.02,1.26,2.02,2.44,2.24,4.42Z"/>
  <path class="st43" d="M48.12,113.3c-1.18,1.5-1.14,3.22-1.7,5.82-2.95-1.66-1.92-5.02-1.03-6.63.78.15,1.39.2,1.66.07.47-.22.63-1.46.35-2.22.89.55,1.17,2.39.72,2.96Z"/>
  <rect class="st42" x="42.53" y="123.53" width="6.59" height="2.46" transform="translate(-81.03 164.44) rotate(-87.2)"/>
  <rect class="st12" x="156.54" y="121.48" width="2.32" height="6.58" transform="translate(-.98 1.25) rotate(-.45)"/>
  <rect class="st35" x="136.99" y="151.1" width="2.2" height="6.32" transform="translate(-17.79 290.51) rotate(-89.32)"/>
  <rect class="st42" x="146.5" y="151.04" width="2.38" height="6.49" transform="translate(-16.01 291.48) rotate(-86.22)"/>
  <rect class="st12" x="154.39" y="161.8" width="6.43" height="2.47" transform="translate(-6.8 319.21) rotate(-89.5)"/>
  <rect class="st17" x="73.05" y="151.35" width="2.17" height="6.1" transform="translate(-80.59 227.83) rotate(-89.74)"/>
  <rect class="st31" x="61.46" y="153.16" width="6.38" height="2.25"/>
  <rect class="st33" x="53.8" y="151.1" width="2.22" height="6.34" transform="translate(-99.79 207.96) rotate(-89.55)"/>
  <rect class="st14" x="154.42" y="143.02" width="6.54" height="2.31" transform="translate(12.28 300.73) rotate(-89.55)"/>
  <rect class="st1" x="42.52" y="161.8" width="6.44" height="2.48" transform="translate(-117.49 208.06) rotate(-89.75)"/>
  <rect class="st14" x="156.64" y="112.15" width="2.22" height="6.42" transform="translate(-.9 1.25) rotate(-.45)"/>
  <rect class="st19" x="156.41" y="131.58" width="2.46" height="6.47" transform="translate(-1.17 1.38) rotate(-.5)"/>
  <rect class="st30" x="32.88" y="76.25" width="6.26" height="2.17" transform="translate(-.09 .04)"/>
  <rect class="st18" x="43.95" y="74.33" width="2.17" height="6.02" transform="translate(-32.66 121.77) rotate(-89.55)"/>
  <rect class="st36" x="44.69" y="131.44" width="2.26" height="6.32" transform="translate(-.56 .19) rotate(-.24)"/>
  <rect class="st34" x="163.55" y="153.15" width="5.93" height="2.39" transform="translate(-3.36 3.7) rotate(-1.26)"/>
  <rect class="st6" x="44.53" y="140.9" width="2.39" height="6.34" transform="translate(-1.13 .36) rotate(-.45)"/>
  <rect class="st3" x="23.21" y="153.15" width="6.55" height="2.22"/>
  <rect class="st22" x="51.42" y="76.28" width="6.2" height="2.16" transform="translate(-.91 .65) rotate(-.68)"/>
  <rect class="st10" x="14.45" y="76.21" width="5.98" height="2.2"/>
  <rect class="st5" x="153.4" y="16.63" width="6.81" height="1.95"/>
  <rect class="st41" x="80.45" y="153.76" width="5.84" height="1.95"/>
  <rect class="st32" x="134.92" y="16.63" width="5.84" height="1.95"/>
  <rect class="st24" x="144.64" y="16.63" width="5.84" height="1.95"/>
  <rect class="st25" x="125.19" y="16.63" width="5.84" height="1.95"/>
  <rect class="st24" x="163.12" y="16.63" width="5.84" height="1.95"/>
  <rect class="st5" x="116.44" y="16.63" width="5.84" height="1.95"/>
  <path class="st21" d="M99.92,109.91l.06,41.81-33.77-11.85c-5.64-2.02-9.56-7.12-10.75-12.66l-3.51-16.32-.13-2.22c15.63-.39,31.28-.55,46.95-.47l1.15,1.71Z"/>
  <path class="st21" d="M151.61,110.01l-3.92,17.67c-1.35,6.07-6.23,10.88-12.24,12.98l-31.87,11.11-.02-41.74.17-1.3c15.41-.58,30.99-.77,46.74-.56l1.15,1.82Z"/>
  <path class="st21" d="M155,96.25l-2.52,10.1-.89,1.83-46.84.09-1.17-1.76-.02-33.96,52.56,17.01c-.71,2.57-.66,4.82-1.12,6.68Z"/>
  <path class="st21" d="M99.89,106.49l-.29,1.3c-15.66.42-31.44.71-47.34.88l-2.03-4.61c0-2.38-1.28-4.58-1.59-6.78l-1.11-7.9,52.34-16.93.02,34.04Z"/>
  <path class="st23" d="M99.89,106.49l.04,3.42-44.82.14c-1.38,0-2.38.09-3.15.84-.48-2.25-1.72-4.41-1.72-6.83l1.48,2.67,48.17-.25Z"/>
  <polygon class="st39" points="152.48 106.35 151.61 110.01 103.56 110.04 103.58 106.52 152.48 106.35"/>
  <path class="st20" d="M138.64,79.35c-.97-.34-2.73-1.21-3.78-1.34-.75-.22-1.88-.57-1.92-1.15-.15-2.09.13-15.89.61-16.83,3-2.67,6.34-4.79,10.01-6.36-27.56-.52-55.37-.67-83.43-.43,3.61,1.96,6.97,4.16,10.07,6.61l.56,16.64-1.91,1.41c-1.14.14-2.84,1.03-3.79,1.37l-.29-16.6-9.3-4.78c-2.46-1.26-.99-7.31-.38-10.26l30.62-.36.13-10.86,14.05-.36.06-17.48c0-.98.29-1.57.56-1.92.49-.64,2.76-.45,2.78.63l.38,18.64,13.78.19.41,11.18,30.74.32c.55,2.91,1.47,7.58-.12,9.93-2.14,2.76-6.66,3.05-9.66,4.87-.61,5.93-.27,11.27-.18,16.91Z"/>
  <rect class="st27" x="89.41" y="39.69" width="24.84" height="7.7"/>
  <path class="st21" d="M134.86,78.01c-10.92-1.37-21.56-9.12-33.03-9.16-11.41-.04-22.1,7.7-32.98,9.06l-.41-17.86-9.87-4.82c-.77-.37-.47-3.93.39-3.93h86.19c2.11,6.66-5.33,4.48-9.89,9.43l-.4,17.29Z"/>
  <path class="st2" d="M126.4,61.25l-48.85.12c-1.52,0-2.4-.51-2.52-1.67-.14-1.39.58-2.23,2.53-2.23l49.47.08c1.08,0,1.24.97,1.3,1.36.08.58-.4,2.33-1.94,2.34Z"/>
</svg>