<?xml version="1.0" encoding="UTF-8"?>
<svg id="Layer_1" xmlns="http://www.w3.org/2000/svg" version="1.1" viewBox="0 0 223.75 150.18">
  <!-- Generator: Adobe Illustrator 30.5.1, SVG Export Plug-In . SVG Version: 2.1.4 Build 3)  -->
  <defs>
    <style>
      .st0 {
        fill: #e3e6e8;
      }

      .st1 {
        fill: #bcbdbd;
      }

      .st2 {
        fill: #3b4e5e;
      }

      .st3 {
        fill: #aeb0b0;
      }

      .st4 {
        fill: #abaeae;
      }

      .st5 {
        fill: #0b2238;
      }

      .st6 {
        fill: #afb0af;
      }

      .st7 {
        fill: #ca2128;
      }

      .st8 {
        fill: #bfbebf;
      }

      .st9 {
        fill: #fdfeff;
      }

      .st10 {
        fill: #b9b9ba;
      }

      .st11 {
        fill: #fff;
      }

      .st12 {
        fill: #aeadb0;
      }

      .st13 {
        fill: #cc202b;
      }
    </style>
  </defs>
  <rect class="st10" x="51.49" y="134.63" width="147.74" height="3.4"/>
  <rect class="st4" x=".47" y="73.91" width="35.98" height="1.95"/>
  <path class="st8" d="M40.78,137.87l-15.83-.22c-.96-.18-.81-2.86.38-2.87l16.26-.04c.74,0,1.23,1.46,1.01,1.87-.21.38-.35,1.27-1.83,1.25Z"/>
  <rect class="st12" x="110.37" width="1.95" height="14.59"/>
  <rect class="st1" x="110.15" y="144.37" width="2.86" height="5.8" transform="translate(-1.16 .89) rotate(-.45)"/>
  <path class="st7" d="M167.02,72.24c-1.12-.84-1.36-1.98-1.34-2.67.1-3.77,4.5.91,9.46,2.65-6.01-28.17-29.62-48.72-56.99-51.38-28.8-2.8-55.39,13.13-66.66,39.7-.45,1.07-1.52,1.64-2.12,1.65-1.04.02-2.24-1.17-1.47-3.09,11.41-28.45,40.53-45.38,71.05-42.17,29.39,3.09,53.74,24.61,60.15,54.8l4.6-8c.38-.67,1.43-.39,1.87-.33.54.08,1.74.74,1.28,1.79l-7.19,16.55-12.63-9.51Z"/>
  <path class="st6" d="M110.07,75.9l-30.84-.2v-1.61s31-.48,31-.48l39.77-25c-9.7-10.4-22.64-16.01-37.05-16.61l-.92,9.84h-1.32s-.59-9.74-.59-9.74c-20.57.48-38.48,12.6-47.26,31.56-1.4.54-2.79-.72-2.06-2.26,9.09-19.2,28.31-31.4,48.97-32.19.49-1.99,1.13-3.23,2.04-2.83.55.24.96,1.64,1.28,2.83,20.56.75,42.23,13.36,49.13,33.37-5.72-2.32-6.14-8.49-10.35-12l-35.07,22.64,41.1,1.71-45.09,1.27-.7,18.14h-1.52s-.52-18.44-.52-18.44Z"/>
  <path class="st3" d="M210.48,80.5l6.01-4.38-25.41-.45v-1.59s24.89-.81,24.89-.81c-2.88-2.45-6.48-2.46-5.66-7.01,5.32,1.84,9.21,5.02,13.45,8.62l-11.5,8.12c-1.2.84-3.32-1.38-1.77-2.5Z"/>
  <path class="st5" d="M220.42,123.02c1.53.03,2.22.51,2.47,1.14.28.69-.16,2.61-1.93,2.61l-218.34.06c-1.83,0-2.33-.83-2.6-1.84-.18-.67.51-1.98,1.72-2l24.42-.38-8.54-5.64c-5.63-3.72-7-11.85-6.53-18.61l10.23-.59,6.95-16.49c.57-1.35,3.64-1.28,3.94-.33l-2.68,8.06,9.68.15,4.82-10.53.65-9.49c2.35-.73,6.9-1.59,9.31.03l4.03,10.33,9.65.27c1.04,4.05.25,9.17-4.18,10.58-.39,2.91-.57,5.11.24,7.8l85.2-.15c3.72-2.36,6.62-6.46,10.81-7.84l47.86-1.85c1.01-.04,2.18.56,2.47,1.02s.26,1.64-.3,2.3l-16.22,18.92c-2.47,2.89-4.9,9.24-1.46,11.89l28.32.58Z"/>
  <path class="st11" d="M186.36,117.6l.7,5.24H33.66c-2.51-1.71-3.92-4.1-6.46-5.02l.68-1.95c52.42-.06,104.84-.08,157.28-.07l1.2,1.8Z"/>
  <path class="st9" d="M59.53,97.93l-33.32.26c-.51-1.25.46-4.75,2.5-4.83l12.97-.51,4.64-9.22,17.35-.24c.86,2.88-2.42,2.89-3.13,3.72-2.2,2.85-1.07,6.5-1,10.81Z"/>
  <path class="st0" d="M50.34,72.4c2.03.33,3.16,6.25,2.68,6.76-.62.66-2.71.49-3.52.47-2.16-.06-1.65-5.73-1-6.72.3-.45.9-.65,1.83-.5Z"/>
  <path class="st11" d="M187.05,114.01l-.68,1.79c-53.34.13-106.74.07-160.21-.17l-5.78-1.79c-3.32-2.65-4.66-7.12-5.12-11.74l134.67-.05,10.65-8.29,42.77-1.02c-6.22,7.74-12.62,13.3-16.29,21.28Z"/>
  <path class="st13" d="M187.05,114.01l-.69,3.6-159.15.22c-2.64-.96-4.62-2.23-6.84-3.99l166.68.18Z"/>
  <path class="st2" d="M187.31,99.57c1.46,1.9-.59,2.97-1.84,3.1-1.73.18-4.34.09-3.96-2.67.24-1.72,4.53-2.08,5.8-.43Z"/>
</svg>