<?xml version="1.0" encoding="UTF-8"?>
<svg id="Layer_1" xmlns="http://www.w3.org/2000/svg" version="1.1" viewBox="0 0 178.49 178.68">
  <!-- Generator: Adobe Illustrator 30.5.1, SVG Export Plug-In . SVG Version: 2.1.4 Build 3)  -->
  <defs>
    <style>
      .st0 {
        fill: #cf2028;
      }

      .st1 {
        fill: #c82128;
      }

      .st2 {
        fill: #162d3f;
      }

      .st3 {
        fill: #d2202b;
      }

      .st4 {
        fill: #fff;
        stroke: #c82128;
        stroke-miterlimit: 10;
        stroke-width: 3px;
      }

      .st5 {
        fill: #cf202a;
      }

      .st6 {
        fill: #f9fbfc;
      }

      .st7 {
        fill: #a0a3a8;
      }
    </style>
  </defs>
  <path class="st2" d="M87.67,161.11l-.38-9.13c-34.1-.52-61.72-28.37-62.52-62.52l-8.13-.09c-1.1-.01-1.67-.64-1.66-1.54s.56-1.5,1.66-1.52l8.1-.11c1.13-34.56,28.17-61.47,62.58-62.3v-8.24c0-1.1.4-1.82,1.39-1.87.74-.04,1.58.27,1.59,1.4l.07,8.78c34.52.63,61.45,27.74,62.69,62.25l8.2.09c.87,0,1.33.54,1.51,1.12.22.73-.11,1.83-1.1,1.85l-8.62.19c-1.09,34.31-28.18,61.9-62.67,62.48l-.16,8.97c-.02.93-2.52,1.24-2.56.18Z"/>
  <path class="st6" d="M72.76,145.76c.48.37.53.63-.09.79-10.07-2.74-19.36-8.17-26.89-15.8,4.05-2.38,7.97-4.06,12.43-5.6,3.48,8.09,8.06,15.24,14.55,20.6Z"/>
  <path class="st6" d="M131.87,44.92c-4.02,2.64-8.14,4.1-12.37,5.71-3.27-8.53-8.39-15.17-15.19-21.4,10.67,2.52,19.7,7.89,27.56,15.69Z"/>
  <path class="st6" d="M72.3,29.36c.72.09.43.57-.06,1.03-6.21,5.36-10.59,12.26-14.08,20.19-4.47-1.58-8.62-3.23-12.25-5.77,7.83-7.62,16.7-12.68,26.39-15.45Z"/>
  <path class="st7" d="M72.66,146.55l.09-.79c.3.01.45.22.78.52s.02.75-.48.55c-.14-.06-.27-.18-.39-.29Z"/>
  <path class="st6" d="M132.18,130.74c-7.92,7.73-17.17,13.51-28.34,16.03,6.98-5.68,12.05-12.78,15.67-21.46,4.42,1.14,8.34,3.22,12.67,5.44Z"/>
  <path class="st6" d="M117.16,124.37c-5.03,11.53-13.9,23.94-26.82,24.42v-22.19c-.01-1.04-.39-1.69-1.24-1.87-.73-.15-1.65.26-1.66,1.35l-.08,22.72c-12.68-.68-21.68-12.88-26.73-24.45,7.24-2.43,14.35-3.61,21.77-4.29.85-.08,1.2-.65,1.14-1.33-.04-.45-.43-1.14-1.27-1.1-7.75.4-15.13,1.92-22.7,4.29-3.63-9.29-5.45-18.55-6.13-28.18-.06-.81-.69-1.25-1.18-1.25-.86,0-1.44.59-1.3,1.68.61,9.8,2.52,19.19,6.23,28.63-4.57,1.64-8.92,3.41-13.23,6.04-9.86-11-15.41-24.56-15.92-39.45l17.4-.05c.82,0,1.55-.52,1.76-1.07.2-.51-.26-1.83-1.13-1.84l-18.05-.14c.51-14.75,5.92-28.41,15.91-39.25l13.24,5.82c-3.62,9.34-5.63,19.01-6.22,29.13-.05.82.43,1.26.88,1.44.58.23,1.57-.05,1.62-1,.56-9.82,2.41-19.23,6.15-28.58,6.45,2.04,22.72,5.56,23.8,3.55.24-.45.08-1.57-.58-1.65-7.55-.92-14.85-1.84-22.25-4.43,5.32-11.67,14.09-24.01,26.85-24.17l-.04,21.94c0,1.09.38,1.85,1.34,1.9.66.03,1.6-.47,1.6-1.5v-22.38c12.77.07,21.69,12.8,26.85,24.2-7.09,2.45-14.18,3.69-21.6,4.31-.76.06-1.18.39-1.35.91-.16.48,0,1.59.9,1.55,7.8-.37,15.18-1.83,22.98-4.27,3.79,9,5.58,18.45,6.22,28.17.06.94.57,1.49,1.35,1.49.64,0,1.27-.53,1.17-1.53-.61-9.93-2.51-19.44-6.19-28.99l13.11-5.95c10.01,10.6,15.46,24.38,16.05,39.24l-17.98.14c-.83,0-1.33.88-1.33,1.43,0,.75.6,1.52,1.6,1.52l17.72.08c-.6,14.76-6.04,28.44-15.91,39.32l-13.27-5.9c3.57-9.44,5.69-19.05,6.24-29.19.05-.89-.72-1.23-1.2-1.19-.99.07-1.24.62-1.32,1.68-.73,9.64-2.57,18.9-6.25,27.82-6.67-2.43-23.15-5.63-23.92-3.66-.21.55.03,1.65.89,1.72,7.55.68,14.81,1.82,22.1,4.32Z"/>
  <path class="st2" d="M90.33,118.18c-.02,1.02-.68,1.34-1.14,1.43-.72.14-1.71-.27-1.72-1.19l-.11-7.01c-11.89-.59-21.04-10.08-22.06-21.9l-6.13-.12c-.97-.02-1.48-.47-1.67-1.08-.2-.65.07-1.81.92-1.84l6.9-.25c1.08-11.89,10.12-21.25,21.99-21.93l.05-6.11c0-.89.22-1.61.92-1.86s1.91.03,1.94,1.07l.2,6.96c11.98.65,20.87,9.88,21.98,21.82l6.22.17c1.01.03,1.62.69,1.63,1.5,0,.7-.52,1.57-1.5,1.57h-6.31c-.82,11.76-9.93,21.3-22,22l-.12,6.78Z"/>
  <g>
    <path class="st6" d="M86.38,107.19c-8.68-1.21-15.34-7.87-16.67-16.67l4.5-.13c1.34-.04,2.2-.97,2.45-1.88.2-.73.06-1.53-.39-2.15-.42-.58-1.05-.91-1.76-.94l-4.79-.21c1.38-8.79,7.84-15.3,16.49-16.6l.22,4.83c.06,1.34.93,2.26,2.23,2.35.02,0,.13,0,.15,0,1.15,0,2.37-.77,2.42-2.05l.18-5.14c8.64,1.18,15.33,7.85,16.75,16.69l-4.54.11c-1.42.03-2.5,1.03-2.58,2.36-.04.67.18,1.3.62,1.78.49.53,1.22.84,2.06.86l4.39.12c-1.21,8.75-7.88,15.4-16.67,16.64l-.1-4.84c-.03-1.49-1.25-2.38-2.4-2.38-.09,0-.18,0-.27.02-1.38.18-2.24,1.24-2.25,2.78l-.02,4.45Z"/>
    <path class="st1" d="M92.35,69.77c7.3,1.44,12.95,7.08,14.59,14.55l-3.36.08c-1.95.05-3.44,1.43-3.55,3.3-.06.94.26,1.84.88,2.51.67.73,1.66,1.15,2.77,1.18l3.24.09c-1.47,7.38-7.1,13-14.52,14.49l-.08-3.68c-.05-2.1-1.76-3.36-3.4-3.36h0c-.13,0-.27,0-.4.03-1.89.24-3.11,1.72-3.12,3.77v3.27c-7.33-1.47-12.94-7.1-14.49-14.52l3.34-.1c1.6-.05,2.96-1.1,3.38-2.61.28-1.02.08-2.14-.55-3-.6-.82-1.52-1.31-2.53-1.36l-3.64-.16c1.58-7.42,7.05-12.94,14.35-14.47l.17,3.69c.08,1.82,1.38,3.18,3.16,3.3.07,0,.14,0,.22,0,1.63,0,3.35-1.13,3.42-3.02l.14-4M87.15,67.48c-10.12,1.02-17.51,8.76-18.58,18.68l5.88.25c.98.04,1.45,1.04,1.24,1.82-.15.54-.66,1.12-1.51,1.14l-5.6.17c1.01,10.1,8.74,17.9,18.79,18.75l.02-5.56c0-1.03.48-1.68,1.38-1.79.05,0,.09,0,.14,0,.61,0,1.38.47,1.4,1.41l.13,5.93c10.1-.91,17.89-8.65,18.77-18.73l-5.47-.15c-1.14-.03-1.76-.73-1.71-1.58.05-.77.66-1.4,1.61-1.42l5.66-.13c-1.12-10.16-8.89-17.94-18.85-18.78l-.22,6.21c-.03.77-.88,1.09-1.42,1.09-.03,0-.06,0-.08,0-.69-.05-1.25-.49-1.29-1.4l-.27-5.91h0Z"/>
  </g>
  <circle class="st2" cx="88.85" cy="87.78" r="7.02"/>
  <circle class="st6" cx="88.85" cy="87.78" r="4.69"/>
  <path class="st0" d="M76.17,165.18c1.43.28,1.55,1.3,1.63,1.7.12.59-.5,2.05-1.58,2.44-36.14-6.48-63.94-36.13-67.41-73.11-3.65,3.16-4.64,7.82-7.45,7.09-.7-.18-1.88-1.32-1.11-2.38l10.11-13.74,11.5,11.49c.73.73.76,2.3.21,2.93-2.12,2.41-4.68-2.74-8.9-5.32,3.28,34.55,29.03,62.22,62.99,68.9Z"/>
  <path class="st1" d="M169.45,86.7c-7.23-4.18-16.4-13.51-12.52-14.36,3.17-.69,4.58,3.9,8.59,5.64-4.9-32.83-30.08-58.6-62.46-64.48-1.81-.33-2.66-1.36-2.1-3.06.33-1.02,1.59-1.37,3.28-1.05,34.34,6.64,60.38,33.67,65.66,68.8l4.3-6.71c.59-.92,1.23-1.33,2.04-1.43.94-.11,2.02.57,2.25,1.82l-9.04,14.85Z"/>
  <path class="st1" d="M80.25,12.84c-32.5,4.04-58.79,28.23-65.66,60.38-.37,1.74-1.34,2.51-2.7,2.2s-1.79-1.49-1.38-3.36C17.83,38.19,45.76,13,79.7,8.61l-6.5-4.96c-.78-.59-.69-1.63-.81-2.07-1.24-4.5,8.67,1.36,15.48,8.25-4.72,7.4-12.84,15.95-13.99,12.07-.22-.76-.36-1.68.49-2.62l5.88-6.44Z"/>
  <path class="st3" d="M102.86,178.11l-11.08-7.45c-.74-.5-1.19-1.37-1.25-1.94-.09-.87.51-1.72,1.3-2.57l8.46-9.12c.65-.7,1.6-.69,2.06-.75.72-.08,2.48,1.34,1.6,2.36l-6.14,7.17c11.33-1.05,21.36-4.84,30.71-10.61,1.11-.68,2.33-.23,2.83.78,2.26,4.57-20.87,12.82-32.82,14.23l7.57,5.66c.91.68.01,2-.68,2.45-.74.48-1.46.51-2.55-.22Z"/>
  <path class="st5" d="M167.58,98.99c5.8.19-7.12,35.37-11.72,32.49-.75-.47-1.28-1.77-.63-2.92,5-8.86,8.59-17.87,10.22-27.85.2-1.19,1.47-1.75,2.13-1.73Z"/>
  <path class="st4" d="M100.89,106.86c-5.81,1.77-10.97,1.16-15.37-1.9-3.77-2.62-6.58-7.24-5.66-12.6l9.03,7.3,9.11-2.87,2.71-9.01-8.06-7.75c5.12-1.42,10.26,1.27,13.52,4.81,3.76,4.09,4.02,9.31,2.71,14.64l39.7,36.54c2.84,2.61.63,6.92-1.6,8.43-3.4,2.3-7.03,1.39-9.79-1.36l-36.3-36.22Z"/>
</svg>