<svg xmlns="http://www.w3.org/2000/svg" viewBox="0 0 512 512" id="ship">
  <path d="M510.68,275.6c-1.48-2.25-3.99-3.6-6.68-3.6v-24c0-4.42-3.58-8-8-8s-8,3.58-8,8v24c0,.05,0,.1,0,.15-25.68.46-55.53,1.93-87.39,4.06-33.12-34.65-57.54-52.21-72.62-52.21-34.64,0-148.76,23.17-153.6,24.16-3.73.76-6.4,4.04-6.4,7.84v41.8c-28.2,3.12-53.28,6.04-73.2,8.41L47.76,118.06c-1.07-4.29-5.41-6.89-9.7-5.82-4.29,1.07-6.89,5.42-5.82,9.7l46.55,186.19c-19.52,2.36-31.21,3.86-31.8,3.93-3.99.51-6.98,3.91-6.98,7.94v40h-16v-16c0-4.42-3.58-8-8-8s-8,3.58-8,8v16c-4.42,0-8,3.58-8,8s3.58,8,8,8v16c0,4.42,3.58,8,8,8s8-3.58,8-8v-16h16v8c0,4.42,3.58,8,8,8h329.54c44.97,0,87.19-24.08,110.19-62.86,9.38-15.81,17.32-31.28,23.63-45.99,1.06-2.47.81-5.31-.67-7.56ZM184,262.55c24.93-4.96,115.46-22.55,144-22.55,3.68,0,10.59,3.1,20.7,10.5l-101.76,13.57c-4.38.58-7.46,4.61-6.87,8.99.54,4.02,3.97,6.94,7.92,6.94.35,0,.71-.02,1.07-.07l116.55-15.54c4.34,3.89,9.02,8.31,14.05,13.3-64.99,4.78-135.99,11.86-195.66,18.35v-33.48ZM491.57,288.09c-2.53,5.32-5.26,10.74-8.2,16.22l-427.37,31.08v-8.34c45.5-5.69,301.52-37.03,435.57-38.96ZM377.54,376H56v-24.56l417.92-30.39c-20.14,33.9-57.06,54.96-96.39,54.96Z" fill="#BE1E2D" class="color000000 svgShape"></path>
</svg>
