<?xml version="1.0" encoding="UTF-8"?>
<svg id="Speedometer" xmlns="http://www.w3.org/2000/svg" version="1.1" viewBox="0 0 56 56">
  <!-- Generator: Adobe Illustrator 30.5.1, SVG Export Plug-In . SVG Version: 2.1.4 Build 3)  -->
  <defs>
    <style>
      .st0 {
        fill: #BE1E2D;
      }
    </style>
  </defs>
  <path class="st0" d="M28,0C12.56,0,0,12.56,0,28s12.56,28,28,28,28-12.56,28-28S43.44,0,28,0ZM28,54c-14.34,0-26-11.66-26-26S13.66,2,28,2s26,11.66,26,26-11.66,26-26,26Z"/>
  <path class="st0" d="M46.8,42.9c-4.59,5.78-11.44,9.1-18.8,9.1s-14.34-3.38-18.94-9.27c-.34-.43-.26-1.06.17-1.39,0,0,0,0,0,0,.43-.34,1.05-.27,1.39.16,0,0,0,0,0,0,4.21,5.4,10.54,8.5,17.36,8.5s13.02-3.04,17.23-8.34c.34-.43.97-.51,1.4-.16.43.34.51.97.17,1.4ZM52,28c0,2.94-.33,5.02-1.17,7.42h0v.02c-.02.06-.06.1-.08.15-.03.04-.04.08-.07.12-.04.05-.09.09-.13.13-.03.03-.06.06-.09.08-.06.04-.12.07-.18.1-.03,0-.06.03-.09.04-.1.03-.2.05-.31.05-.1,0-.2-.02-.31-.05l-4.08-1.33c-.52-.17-.81-.73-.64-1.26.17-.52.74-.81,1.26-.64l3.13,1.02c.47-1.54.7-3.02.75-4.85h-3.27c-.55,0-1-.45-1-1s.45-1,1-1h3.26c-.07-1.67-.33-3.29-.76-4.84l-3.11,1.01c-.1.03-.21.05-.31.05-.42,0-.81-.27-.95-.69-.17-.53.12-1.09.64-1.26l3.11-1.01c-.58-1.55-1.33-3.01-2.23-4.36l-2.64,1.91c-.17.12-.37.19-.58.19-.31,0-.62-.14-.81-.41-.33-.44-.23-1.07.21-1.4,0,0,0,0,0,0l2.63-1.91c-1.02-1.28-2.18-2.44-3.46-3.46l-1.91,2.63c-.2.27-.51.42-.81.42-.21,0-.42-.07-.59-.2-.44-.32-.55-.93-.23-1.37,0,0,0-.01.01-.02l1.91-2.64c-1.35-.9-2.81-1.65-4.36-2.23l-1.01,3.11c-.14.42-.53.69-.95.69-.56,0-1-.46-1-1.01,0-.1.02-.2.05-.3l1.01-3.11c-1.55-.43-3.17-.69-4.84-.76v3.26c0,.55-.45,1-1,1s-1-.45-1-1v-3.26c-1.67.07-3.29.33-4.84.76l1.01,3.11c.17.53-.12,1.09-.65,1.26-.1.03-.2.05-.3.05-.42,0-.82-.27-.95-.69l-1.01-3.11c-1.55.58-3.01,1.33-4.36,2.23l1.91,2.64c.33.44.23,1.07-.22,1.39-.17.13-.38.2-.59.2-.3,0-.61-.15-.81-.42l-1.91-2.63c-1.28,1.02-2.44,2.18-3.46,3.46l2.63,1.91c.45.33.55.96.22,1.4-.19.27-.5.41-.81.41-.2,0-.4-.06-.58-.19l-2.64-1.91c-.9,1.35-1.65,2.81-2.23,4.36l3.11,1.01c.52.17.81.73.64,1.26-.14.42-.53.69-.95.69-.1,0-.21-.02-.31-.05l-3.11-1.01c-.43,1.55-.69,3.17-.76,4.84h3.26c.55,0,1,.45,1,1s-.45,1-1,1h-3.27c.05,1.83.28,3.31.75,4.85l3.13-1.02c.53-.17,1.09.12,1.26.64.17.53-.12,1.09-.64,1.26l-4.09,1.33c-.1.03-.2.05-.3.05-.02,0-.03,0-.04,0-.03,0-.07,0-.1,0-.08-.02-.16-.03-.24-.07-.04-.01-.08-.03-.11-.05-.07-.04-.13-.09-.19-.14-.03-.03-.06-.05-.09-.09-.06-.07-.11-.16-.15-.25-.01-.02-.02-.03-.03-.05v-.02h-.01c-.42-1.2-.71-2.32-.9-3.51s-.27-2.44-.27-3.91c0-2.58.41-5.07,1.17-7.4v-.02s.01-.01.01-.01c.78-2.39,1.93-4.61,3.37-6.61.02-.02.02-.05.03-.07.02-.02.04-.02.05-.04,1.46-2,3.22-3.76,5.22-5.22.01-.01.02-.03.04-.05.02-.01.05-.01.07-.03,2-1.44,4.22-2.59,6.61-3.37,0,0,.01,0,.01-.01h.02c2.33-.76,4.82-1.17,7.4-1.17s5.07.41,7.4,1.17h.02s0,.01,0,.01c2.39.78,4.61,1.93,6.61,3.37.02.02.05.02.07.03.02.02.03.04.04.05,2,1.46,3.76,3.22,5.22,5.22,0,.02.03.02.05.04,0,.02,0,.05.03.07,1.44,1.99,2.59,4.22,3.37,6.61,0,0,0,.01,0,.01v.02c.76,2.33,1.17,4.82,1.17,7.4Z"/>
  <path class="st0" d="M38.32,16.11c-.42-.36-1.05-.31-1.41.11,0,0,0,0,0,0l-7.41,8.61c-.47-.22-.97-.34-1.49-.34-1.93,0-3.5,1.57-3.5,3.5s1.57,3.5,3.5,3.5,3.5-1.57,3.5-3.5c0-.67-.19-1.29-.52-1.82l7.43-8.65c.36-.42.32-1.05-.1-1.41,0,0,0,0,0,0ZM28.01,29.49c-.82,0-1.5-.67-1.5-1.5s.68-1.5,1.5-1.5c.4,0,.76.16,1.02.41h0c.6.57.63,1.51.07,2.12-.28.3-.68.47-1.1.47ZM33.64,37.25h-11.25c-1.1,0-2,.9-2,2v3.63c0,1.1.9,2,2,2h11.25c1.1,0,2-.9,2-2v-3.63c0-1.1-.9-2-2-2ZM33.64,42.88h-11.25v-3.63h11.25v3.63Z"/>
</svg>
