<?xml version="1.0" encoding="UTF-8"?>
<svg id="radar" xmlns="http://www.w3.org/2000/svg" version="1.1" viewBox="0 0 484.52 484.5">
  <!-- Generator: Adobe Illustrator 30.5.1, SVG Export Plug-In . SVG Version: 2.1.4 Build 3)  -->
  <defs>
    <style>
      .st0 {
        fill: #BE1E2D;
      }
    </style>
  </defs>
  <path class="st0" d="M413.55,70.95C261.35-80.95.25,27.25.05,242.25c-2.7,130.2,112,244.9,242.3,242.2,215-.2,323.1-261.3,171.2-413.5ZM405.05,405.05C260.45,549.45,12.25,446.65,12.05,242.25,9.45,118.45,118.55,9.45,242.25,12.05c204.4.2,307.2,248.4,162.8,393Z"/>
  <path class="st0" d="M421.15,171.85c-3.2-7.3-13.8-3.1-11.2,4.4,55.5,140.9-79.3,284.1-223.3,237.4,2.3-20.2-22.6-31.3-36-16.3-106.3-60.9-119-216.8-23.5-293.6,16,15.7,42-1.3,33.9-22.3,45.4-23.2,101.2-25.7,148.4-6.4l-14.8,35.2c-111.9-44.4-225.5,63.5-186.9,177.5-15,14.1-2.5,39.2,17.9,35.5,69.1,99.6,224.1,71.4,254.3-45.8,21.4-3.1,24.5-32.3,4.3-39.9-.5-16.2-3.7-31.9-9.6-46.9-1.2-3.1-4.7-4.6-7.8-3.4-3.1,1.2-4.6,4.7-3.4,7.8,5.2,13.4,8.2,27.5,8.8,41.9-18.6,4.7-21.4,30.1-4.2,38.6-28.1,106-168.1,131.5-231.6,42.1,14.2-14.1,2.1-38.2-17.7-35.2-33.9-104,69.6-201.3,171.2-161.2l-14.8,35.2c-58.8-23.5-125.7,22.5-124.8,85.8,0,45.1,32.6,83.2,76.5,90.6,6,21.6,36.8,20,40.5-2.2,51.3-14.1,80.2-71.8,60.7-121.3-1.2-3.1-4.7-4.6-7.8-3.4-3.1,1.2-4.6,4.7-3.4,7.8,16.8,42.6-7.4,92-51.3,105-7.9-16.6-32.1-15.2-38.2,2.1-37.4-7-65-39.8-65-78.5-.8-54.9,57.1-94.9,108.1-74.8l-14.8,35.2c-26.4-9.4-55.7,11.5-55.2,39.5,2.3,55.4,81.2,55.4,83.5,0,0-4.8-.8-9.6-2.5-14.1-1.1-3.1-4.6-4.7-7.7-3.6-3.1,1.1-4.7,4.6-3.6,7.7,1.2,3.2,1.7,6.6,1.7,10.1-1.6,39.5-57.9,39.5-59.5,0-.3-19.7,19.9-34.5,38.5-28.5l-11.1,26.3c-1.7,3.8,1.3,8.4,5.5,8.3,2.3,0,4.6-1.4,5.5-3.7l78.3-186c1.3-3.1-.1-6.6-3.2-7.9-3.1-1.3-6.6.1-7.9,3.2l-4.2,9.9c-51.2-21-111.9-17.9-160.8,7.9-15-10.2-35.2,3.1-31.9,20.9-103.9,81.8-90.6,250.5,24.6,315.5-2.7,20.4,22.6,31.8,36.1,16.4,153.9,51,298.7-102,239.4-252.8ZM377.15,248.25c4.8,0,8.7,3.9,8.7,8.7-.5,11.5-16.9,11.6-17.4,0,0-4.8,3.9-8.7,8.7-8.7ZM130.55,302.85c.1,4.7-4,8.8-8.7,8.7-9-.1-12-12.1-4.1-16.4,5.6-3.1,12.9,1.3,12.8,7.7ZM246.95,318.85c4.8,0,8.7,3.9,8.7,8.7-.5,11.6-17,11.6-17.4,0,0-4.8,3.9-8.7,8.7-8.7ZM141.85,80.45c4.7-.1,8.8,4,8.7,8.7-.1,9.4-12.8,12-16.7,3.5-2.6-5.6,1.8-12.4,8-12.2ZM166.15,419.85c-6.2.1-10.6-6.7-8-12.3,3.9-8.5,16.6-5.8,16.7,3.5.1,4.8-4,8.9-8.7,8.8Z"/>
  <path class="st0" d="M346.65,93.35c2.3,2.3,6.1,2.3,8.5,0l7.3-7.3,7.3,7.3c2.3,2.3,6.1,2.3,8.5,0,2.3-2.3,2.3-6.1,0-8.5l-7.3-7.3,7.3-7.3c2.3-2.3,2.3-6.1,0-8.5-2.3-2.3-6.1-2.3-8.5,0l-7.3,7.3-7.3-7.3c-2.3-2.3-6.1-2.3-8.5,0-2.3,2.3-2.3,6.1,0,8.5l7.3,7.3-7.3,7.3c-2.4,2.4-2.4,6.2,0,8.5ZM320.05,143.55l-7.3-7.3c-2.3-2.3-6.1-2.3-8.5,0-2.3,2.3-2.3,6.1,0,8.5l7.3,7.3-7.3,7.3c-2.3,2.3-2.3,6.1,0,8.5,2.3,2.3,6.1,2.3,8.5,0l7.3-7.3,7.3,7.3c2.3,2.3,6.1,2.3,8.5,0,2.3-2.3,2.3-6.1,0-8.5l-7.3-7.3,7.3-7.3c2.3-2.3,2.3-6.1,0-8.5-2.3-2.3-6.1-2.3-8.5,0l-7.3,7.3ZM392.95,156.35c2.3,2.3,6.1,2.3,8.5,0l7.3-7.3,7.3,7.3c2.3,2.3,6.1,2.3,8.5,0,2.3-2.3,2.3-6.1,0-8.5l-7.3-7.3,7.3-7.3c2.3-2.3,2.3-6.1,0-8.5-2.3-2.3-6.1-2.3-8.5,0l-7.3,7.3-7.3-7.3c-2.3-2.3-6.1-2.3-8.5,0-2.3,2.3-2.3,6.1,0,8.5l7.3,7.3-7.3,7.3c-2.4,2.3-2.4,6.1,0,8.5Z"/>
</svg>
